STARTFONT 2.1
FONT -FontForge-Go Mono-Demi-R-Normal--18-170-75-75-P-109-ISO10646-1
SIZE 17 75 75
FONTBOUNDINGBOX 11 24 0 -4
COMMENT "Generated by fontforge, http://fontforge.sourceforge.net"
COMMENT "Copyright (c) 2016 by Bigelow & Holmes Inc.. All rights reserved."
STARTPROPERTIES 41
FOUNDRY "FontForge"
FAMILY_NAME "Go Mono"
WEIGHT_NAME "Demi"
SLANT "R"
SETWIDTH_NAME "Normal"
ADD_STYLE_NAME ""
PIXEL_SIZE 18
POINT_SIZE 170
RESOLUTION_X 75
RESOLUTION_Y 75
SPACING "P"
AVERAGE_WIDTH 109
CHARSET_REGISTRY "ISO10646"
CHARSET_ENCODING "1"
FONTNAME_REGISTRY ""
CHARSET_COLLECTIONS "ASCII ISOLatin1Encoding ISO8859-2 ISO8859-5 ISO8859-7 ISO8859-9 ISO8859-4 ISO10646-1"
FONT_NAME "GoMono-Bold"
FACE_NAME "Go Mono Bold"
COPYRIGHT "Copyright (c) 2016 by Bigelow & Holmes Inc.. All rights reserved."
FONT_VERSION "2.004; ttfautohint (v1.5)"
FONT_ASCENT 14
FONT_DESCENT 4
UNDERLINE_POSITION 2
UNDERLINE_THICKNESS 1
X_HEIGHT 9
CAP_HEIGHT 12
DEFAULT_CHAR 1
RAW_ASCENT 799
RAW_DESCENT 200
NORM_SPACE 11
RELATIVE_WEIGHT 60
RELATIVE_SETWIDTH 50
SUPERSCRIPT_X 0
SUPERSCRIPT_Y 8
SUPERSCRIPT_SIZE 11
SUBSCRIPT_X 0
SUBSCRIPT_Y 2
SUBSCRIPT_SIZE 11
FIGURE_WIDTH 11
AVG_LOWERCASE_WIDTH 110
AVG_UPPERCASE_WIDTH 110
ENDPROPERTIES
CHARS 666
STARTCHAR NULL
ENCODING 0
SWIDTH 0 0
DWIDTH 0 0
BBX 1 1 0 0
BITMAP
00
ENDCHAR
STARTCHAR uni0005
ENCODING 5
SWIDTH 0 0
DWIDTH 0 0
BBX 1 1 0 0
BITMAP
00
ENDCHAR
STARTCHAR nonmarkingreturn
ENCODING 13
SWIDTH 600 0
DWIDTH 11 0
BBX 1 1 0 0
BITMAP
00
ENDCHAR
STARTCHAR space
ENCODING 32
SWIDTH 600 0
DWIDTH 11 0
BBX 1 1 0 0
BITMAP
00
ENDCHAR
STARTCHAR exclam
ENCODING 33
SWIDTH 600 0
DWIDTH 11 0
BBX 3 13 4 0
BITMAP
E0
E0
E0
E0
E0
C0
C0
C0
40
00
00
E0
E0
ENDCHAR
STARTCHAR quotedbl
ENCODING 34
SWIDTH 600 0
DWIDTH 11 0
BBX 7 6 2 8
BITMAP
C6
C6
C6
C6
C6
C6
ENDCHAR
STARTCHAR numbersign
ENCODING 35
SWIDTH 600 0
DWIDTH 11 0
BBX 10 13 0 0
BITMAP
0CC0
0D80
0980
7FC0
7FC0
1B00
1300
7FC0
FF80
3600
2600
2600
6400
ENDCHAR
STARTCHAR dollar
ENCODING 36
SWIDTH 600 0
DWIDTH 11 0
BBX 8 17 1 -2
BITMAP
08
08
7F
6B
EB
E8
78
78
3E
1F
1F
1B
DB
DB
FE
18
18
ENDCHAR
STARTCHAR percent
ENCODING 37
SWIDTH 600 0
DWIDTH 11 0
BBX 11 13 0 0
BITMAP
7040
F880
CD80
CD00
FA00
7600
07C0
0BC0
1E60
1660
2660
63C0
C3C0
ENDCHAR
STARTCHAR ampersand
ENCODING 38
SWIDTH 600 0
DWIDTH 11 0
BBX 11 13 0 0
BITMAP
1E00
3F00
3300
1B00
1E00
3C00
6CE0
6EE0
C6C0
E780
6380
7FC0
3FC0
ENDCHAR
STARTCHAR quotesingle
ENCODING 39
SWIDTH 600 0
DWIDTH 11 0
BBX 3 6 4 8
BITMAP
E0
E0
E0
E0
C0
C0
ENDCHAR
STARTCHAR parenleft
ENCODING 40
SWIDTH 600 0
DWIDTH 11 0
BBX 7 17 2 -3
BITMAP
0E
1E
38
70
60
E0
C0
C0
C0
C0
C0
E0
E0
70
38
1E
06
ENDCHAR
STARTCHAR parenright
ENCODING 41
SWIDTH 600 0
DWIDTH 11 0
BBX 7 17 2 -3
BITMAP
C0
F0
38
1C
0C
0E
0E
0E
0E
0E
0E
0E
0C
1C
38
F0
C0
ENDCHAR
STARTCHAR asterisk
ENCODING 42
SWIDTH 600 0
DWIDTH 11 0
BBX 9 9 1 3
BITMAP
1C00
1800
C900
E780
0000
1400
7600
6700
2400
ENDCHAR
STARTCHAR plus
ENCODING 43
SWIDTH 600 0
DWIDTH 11 0
BBX 9 9 1 1
BITMAP
0800
0800
0800
FF80
FF80
0800
0800
0800
0800
ENDCHAR
STARTCHAR comma
ENCODING 44
SWIDTH 600 0
DWIDTH 11 0
BBX 3 7 4 -4
BITMAP
E0
E0
E0
60
60
E0
C0
ENDCHAR
STARTCHAR hyphen
ENCODING 45
SWIDTH 600 0
DWIDTH 11 0
BBX 9 2 1 5
BITMAP
FF80
FF80
ENDCHAR
STARTCHAR period
ENCODING 46
SWIDTH 600 0
DWIDTH 11 0
BBX 3 3 4 0
BITMAP
E0
E0
E0
ENDCHAR
STARTCHAR slash
ENCODING 47
SWIDTH 600 0
DWIDTH 11 0
BBX 11 17 0 -3
BITMAP
0060
00C0
01C0
0180
0300
0300
0600
0600
0C00
0C00
1800
1800
3000
3000
6000
6000
C000
ENDCHAR
STARTCHAR zero
ENCODING 48
SWIDTH 600 0
DWIDTH 11 0
BBX 9 13 1 0
BITMAP
3C00
7F00
6300
E380
C380
C780
CB80
D380
E380
E380
6300
7F00
3C00
ENDCHAR
STARTCHAR one
ENCODING 49
SWIDTH 600 0
DWIDTH 11 0
BBX 9 14 1 0
BITMAP
0400
1C00
7C00
DC00
1C00
1C00
1C00
1C00
1C00
1C00
1C00
1C00
FF80
FF80
ENDCHAR
STARTCHAR two
ENCODING 50
SWIDTH 600 0
DWIDTH 11 0
BBX 8 13 1 0
BITMAP
7E
7F
43
43
03
07
0E
1C
18
30
60
FF
FF
ENDCHAR
STARTCHAR three
ENCODING 51
SWIDTH 600 0
DWIDTH 11 0
BBX 9 13 1 0
BITMAP
7E00
FF00
C300
0300
0600
7C00
7E00
0700
0380
0380
C300
FF00
FC00
ENDCHAR
STARTCHAR four
ENCODING 52
SWIDTH 600 0
DWIDTH 11 0
BBX 9 13 1 0
BITMAP
0700
0F00
1F00
1700
3700
6700
C700
FF80
FF80
0700
0700
1F80
1F80
ENDCHAR
STARTCHAR five
ENCODING 53
SWIDTH 600 0
DWIDTH 11 0
BBX 8 13 2 0
BITMAP
FE
FE
C0
C0
E0
FC
0E
07
07
07
86
FE
F8
ENDCHAR
STARTCHAR six
ENCODING 54
SWIDTH 600 0
DWIDTH 11 0
BBX 9 13 1 0
BITMAP
1F00
3F00
7100
6000
E400
FF00
E380
E380
E180
E180
6380
7F00
3E00
ENDCHAR
STARTCHAR seven
ENCODING 55
SWIDTH 600 0
DWIDTH 11 0
BBX 9 13 1 0
BITMAP
FF80
FF80
0300
0600
0600
0C00
1800
1800
3800
3000
7000
7000
7000
ENDCHAR
STARTCHAR eight
ENCODING 56
SWIDTH 600 0
DWIDTH 11 0
BBX 9 13 1 0
BITMAP
3E00
7F00
6300
6300
7300
3E00
3E00
6700
C380
C180
E380
FF00
3E00
ENDCHAR
STARTCHAR nine
ENCODING 57
SWIDTH 600 0
DWIDTH 11 0
BBX 9 13 1 0
BITMAP
3C00
7F00
E300
C380
C380
E380
FF80
7B80
0380
0300
C700
FE00
FC00
ENDCHAR
STARTCHAR colon
ENCODING 58
SWIDTH 600 0
DWIDTH 11 0
BBX 3 10 4 0
BITMAP
E0
E0
E0
00
00
00
00
E0
E0
E0
ENDCHAR
STARTCHAR semicolon
ENCODING 59
SWIDTH 600 0
DWIDTH 11 0
BBX 3 14 4 -4
BITMAP
E0
E0
E0
00
00
00
00
E0
E0
E0
60
60
E0
C0
ENDCHAR
STARTCHAR less
ENCODING 60
SWIDTH 600 0
DWIDTH 11 0
BBX 9 11 1 0
BITMAP
0180
0380
0F00
1C00
7000
F000
3800
0E00
0780
0180
0080
ENDCHAR
STARTCHAR equal
ENCODING 61
SWIDTH 600 0
DWIDTH 11 0
BBX 9 6 1 3
BITMAP
FF80
FF80
0000
0000
FF80
FF80
ENDCHAR
STARTCHAR greater
ENCODING 62
SWIDTH 600 0
DWIDTH 11 0
BBX 9 12 1 0
BITMAP
8000
8000
E000
7800
1C00
0700
0780
1E00
3800
E000
C000
8000
ENDCHAR
STARTCHAR question
ENCODING 63
SWIDTH 600 0
DWIDTH 11 0
BBX 9 13 1 0
BITMAP
7E00
FF00
C380
0380
0700
0E00
1C00
1800
3800
0000
0000
3800
3800
ENDCHAR
STARTCHAR at
ENCODING 64
SWIDTH 600 0
DWIDTH 11 0
BBX 11 13 0 0
BITMAP
0F80
3FC0
67C0
6FC0
4CC0
D8C0
D8C0
D9C0
4FE0
6EE0
6000
3F00
0F00
ENDCHAR
STARTCHAR A
ENCODING 65
SWIDTH 600 0
DWIDTH 11 0
BBX 11 13 0 0
BITMAP
0E00
0E00
1E00
1F00
1700
3300
3380
2380
3F80
7F80
61C0
F3E0
F3E0
ENDCHAR
STARTCHAR B
ENCODING 66
SWIDTH 600 0
DWIDTH 11 0
BBX 10 13 0 0
BITMAP
FF00
FF80
71C0
71C0
7380
7F00
7F00
7380
71C0
71C0
71C0
FFC0
FF00
ENDCHAR
STARTCHAR C
ENCODING 67
SWIDTH 600 0
DWIDTH 11 0
BBX 10 13 0 0
BITMAP
0FC0
3FC0
38C0
7040
6000
E000
E000
E000
6000
7000
3800
3FC0
0FC0
ENDCHAR
STARTCHAR D
ENCODING 68
SWIDTH 600 0
DWIDTH 11 0
BBX 10 13 0 0
BITMAP
FE00
FF80
7180
71C0
71C0
70C0
70C0
71C0
71C0
71C0
7380
FF00
FE00
ENDCHAR
STARTCHAR E
ENCODING 69
SWIDTH 600 0
DWIDTH 11 0
BBX 10 13 0 0
BITMAP
FFC0
FFC0
30C0
3000
3300
3F00
3F00
3300
3000
3040
3040
FFC0
FFC0
ENDCHAR
STARTCHAR F
ENCODING 70
SWIDTH 600 0
DWIDTH 11 0
BBX 10 13 0 0
BITMAP
FFC0
FFC0
3040
3000
3000
3100
3F00
3F00
3100
3000
3000
FC00
FC00
ENDCHAR
STARTCHAR G
ENCODING 71
SWIDTH 600 0
DWIDTH 11 0
BBX 10 13 0 0
BITMAP
0FC0
3FC0
38C0
70C0
6000
E000
E3C0
E3C0
70C0
70C0
38C0
3FC0
0FC0
ENDCHAR
STARTCHAR H
ENCODING 72
SWIDTH 600 0
DWIDTH 11 0
BBX 10 13 0 0
BITMAP
F3C0
F3C0
71C0
71C0
71C0
7FC0
7FC0
71C0
71C0
71C0
71C0
F3C0
F3C0
ENDCHAR
STARTCHAR I
ENCODING 73
SWIDTH 600 0
DWIDTH 11 0
BBX 9 13 1 0
BITMAP
FF80
FF80
1C00
1C00
1C00
1C00
1C00
1C00
1C00
1C00
1C00
FF80
FF80
ENDCHAR
STARTCHAR J
ENCODING 74
SWIDTH 600 0
DWIDTH 11 0
BBX 9 13 1 0
BITMAP
3F80
3F80
0600
0600
0600
0600
0600
0600
C600
C600
C600
FE00
FC00
ENDCHAR
STARTCHAR K
ENCODING 75
SWIDTH 600 0
DWIDTH 11 0
BBX 11 13 0 0
BITMAP
F9E0
F9E0
7180
7300
7600
7C00
7E00
7F00
7700
7380
71C0
F9E0
F9E0
ENDCHAR
STARTCHAR L
ENCODING 76
SWIDTH 600 0
DWIDTH 11 0
BBX 10 13 0 0
BITMAP
FE00
FE00
3800
3800
3800
3800
3800
3800
3800
3840
3840
FFC0
FFC0
ENDCHAR
STARTCHAR M
ENCODING 77
SWIDTH 600 0
DWIDTH 11 0
BBX 11 13 0 0
BITMAP
E1E0
F1E0
71C0
71C0
53C0
5AC0
5AC0
5AC0
4EC0
4CC0
4CC0
E1E0
E1E0
ENDCHAR
STARTCHAR N
ENCODING 78
SWIDTH 600 0
DWIDTH 11 0
BBX 11 13 0 0
BITMAP
E1E0
F1E0
70C0
78C0
7CC0
6CC0
6EC0
66C0
67C0
63C0
61C0
F1C0
F0C0
ENDCHAR
STARTCHAR O
ENCODING 79
SWIDTH 600 0
DWIDTH 11 0
BBX 10 13 0 0
BITMAP
1F00
3F80
71C0
61C0
60C0
E0C0
E0C0
E0C0
60C0
61C0
71C0
3F80
1F00
ENDCHAR
STARTCHAR P
ENCODING 80
SWIDTH 600 0
DWIDTH 11 0
BBX 11 13 0 0
BITMAP
FF80
FFC0
38C0
38E0
38C0
39C0
3F80
3F00
3800
3800
3800
FE00
FE00
ENDCHAR
STARTCHAR Q
ENCODING 81
SWIDTH 600 0
DWIDTH 11 0
BBX 11 16 0 -3
BITMAP
1F00
3F80
71C0
61C0
60C0
E0C0
E0C0
E0C0
60C0
61C0
71C0
3F80
1F00
03E0
01C0
00C0
ENDCHAR
STARTCHAR R
ENCODING 82
SWIDTH 600 0
DWIDTH 11 0
BBX 11 13 0 0
BITMAP
FF00
FF80
7380
7180
7380
7380
7E00
7E00
7700
7380
7380
F9E0
F8E0
ENDCHAR
STARTCHAR S
ENCODING 83
SWIDTH 600 0
DWIDTH 11 0
BBX 9 13 1 0
BITMAP
3F00
7F00
E300
E100
F000
7C00
3E00
0F00
0780
C380
C380
FF00
7E00
ENDCHAR
STARTCHAR T
ENCODING 84
SWIDTH 600 0
DWIDTH 11 0
BBX 10 13 0 0
BITMAP
FFC0
FFC0
CE40
0E00
0E00
0E00
0E00
0E00
0E00
0E00
0E00
3F80
3F80
ENDCHAR
STARTCHAR U
ENCODING 85
SWIDTH 600 0
DWIDTH 11 0
BBX 11 13 0 0
BITMAP
F9E0
F9E0
70C0
70C0
70C0
70C0
70C0
70C0
70C0
70C0
70C0
3F80
1F00
ENDCHAR
STARTCHAR V
ENCODING 86
SWIDTH 600 0
DWIDTH 11 0
BBX 11 13 0 0
BITMAP
F1E0
F1E0
70C0
7080
7080
3180
3900
3900
1B00
1F00
1E00
1E00
0E00
ENDCHAR
STARTCHAR W
ENCODING 87
SWIDTH 600 0
DWIDTH 11 0
BBX 11 13 0 0
BITMAP
E0E0
E0E0
6640
6EC0
6EC0
6EC0
6AC0
6A80
6B80
2B80
3380
3380
3180
ENDCHAR
STARTCHAR X
ENCODING 88
SWIDTH 600 0
DWIDTH 11 0
BBX 11 13 0 0
BITMAP
F9C0
F9C0
3980
3B00
1F00
0E00
0E00
0F00
1F00
3380
6380
F3E0
F3E0
ENDCHAR
STARTCHAR Y
ENCODING 89
SWIDTH 600 0
DWIDTH 11 0
BBX 11 13 0 0
BITMAP
F9E0
F9E0
7880
3980
1D00
1F00
0E00
0E00
0E00
0E00
0E00
3F80
3F80
ENDCHAR
STARTCHAR Z
ENCODING 90
SWIDTH 600 0
DWIDTH 11 0
BBX 9 13 1 0
BITMAP
FF80
FF80
C700
0700
0E00
1C00
1C00
3800
3800
7180
E180
FF80
FF80
ENDCHAR
STARTCHAR bracketleft
ENCODING 91
SWIDTH 600 0
DWIDTH 11 0
BBX 6 17 3 -3
BITMAP
FC
FC
C0
C0
C0
C0
C0
C0
C0
C0
C0
C0
C0
C0
C0
FC
FC
ENDCHAR
STARTCHAR backslash
ENCODING 92
SWIDTH 600 0
DWIDTH 11 0
BBX 11 17 0 -3
BITMAP
C000
6000
6000
3000
3000
1800
1800
0C00
0C00
0600
0600
0300
0300
0180
01C0
00C0
0060
ENDCHAR
STARTCHAR bracketright
ENCODING 93
SWIDTH 600 0
DWIDTH 11 0
BBX 6 17 2 -3
BITMAP
FC
FC
1C
1C
1C
1C
1C
1C
1C
1C
1C
1C
1C
1C
1C
FC
FC
ENDCHAR
STARTCHAR asciicircum
ENCODING 94
SWIDTH 600 0
DWIDTH 11 0
BBX 9 8 1 5
BITMAP
0800
1800
1C00
3C00
3600
6600
6300
C380
ENDCHAR
STARTCHAR underscore
ENCODING 95
SWIDTH 600 0
DWIDTH 11 0
BBX 11 2 0 -2
BITMAP
FFE0
FFE0
ENDCHAR
STARTCHAR grave
ENCODING 96
SWIDTH 600 0
DWIDTH 11 0
BBX 5 3 3 12
BITMAP
E0
30
38
ENDCHAR
STARTCHAR a
ENCODING 97
SWIDTH 600 0
DWIDTH 11 0
BBX 9 10 1 0
BITMAP
7E00
FF00
C300
0300
3F00
FF00
E300
C300
FF80
7B80
ENDCHAR
STARTCHAR b
ENCODING 98
SWIDTH 600 0
DWIDTH 11 0
BBX 10 14 0 0
BITMAP
F000
F000
7000
7000
7780
7F80
71C0
70C0
70C0
70C0
71C0
71C0
7F80
7F00
ENDCHAR
STARTCHAR c
ENCODING 99
SWIDTH 600 0
DWIDTH 11 0
BBX 9 10 1 0
BITMAP
1F80
7F80
E080
C080
C000
C000
E000
E000
7F80
3F80
ENDCHAR
STARTCHAR d
ENCODING 100
SWIDTH 600 0
DWIDTH 11 0
BBX 9 14 1 0
BITMAP
0780
0780
0380
0380
3F80
7F80
E380
C380
C380
C380
C380
E380
FF80
7B80
ENDCHAR
STARTCHAR e
ENCODING 101
SWIDTH 600 0
DWIDTH 11 0
BBX 9 10 1 0
BITMAP
3E00
7F00
E380
C180
FF80
FF80
C000
E000
7F80
3F80
ENDCHAR
STARTCHAR f
ENCODING 102
SWIDTH 600 0
DWIDTH 11 0
BBX 10 14 1 0
BITMAP
0F80
1FC0
18C0
3800
FF80
FF80
3800
3800
3800
3800
3800
3800
FF00
FF00
ENDCHAR
STARTCHAR g
ENCODING 103
SWIDTH 600 0
DWIDTH 11 0
BBX 9 14 1 -4
BITMAP
3F80
7F80
E380
C380
C380
C380
C380
C780
FF80
7B80
0380
C300
FF00
FE00
ENDCHAR
STARTCHAR h
ENCODING 104
SWIDTH 600 0
DWIDTH 11 0
BBX 10 14 0 0
BITMAP
F000
F000
7000
7000
7780
7F80
71C0
71C0
71C0
71C0
71C0
71C0
FBC0
FBC0
ENDCHAR
STARTCHAR i
ENCODING 105
SWIDTH 600 0
DWIDTH 11 0
BBX 9 14 1 0
BITMAP
1C00
1C00
1C00
0000
FC00
FC00
1C00
1C00
1C00
1C00
1C00
1C00
FF80
FF80
ENDCHAR
STARTCHAR j
ENCODING 106
SWIDTH 600 0
DWIDTH 11 0
BBX 7 18 1 -4
BITMAP
06
06
06
00
7E
7E
06
06
06
06
06
06
06
06
86
86
FE
F8
ENDCHAR
STARTCHAR k
ENCODING 107
SWIDTH 600 0
DWIDTH 11 0
BBX 11 14 0 0
BITMAP
F000
F000
7000
7000
73C0
73C0
7300
7600
7C00
7E00
7700
7380
FBE0
FBE0
ENDCHAR
STARTCHAR l
ENCODING 108
SWIDTH 600 0
DWIDTH 11 0
BBX 9 14 1 0
BITMAP
F800
F800
3800
3800
3800
3800
3800
3800
3800
3800
3800
1800
1F80
0F80
ENDCHAR
STARTCHAR m
ENCODING 109
SWIDTH 600 0
DWIDTH 11 0
BBX 11 10 0 0
BITMAP
EDC0
FFC0
6EC0
6CC0
6CC0
6CC0
6CC0
6CC0
6CE0
6CE0
ENDCHAR
STARTCHAR n
ENCODING 110
SWIDTH 600 0
DWIDTH 11 0
BBX 11 10 0 0
BITMAP
F780
FF80
71C0
71C0
71C0
71C0
71C0
71C0
F9E0
F9E0
ENDCHAR
STARTCHAR o
ENCODING 111
SWIDTH 600 0
DWIDTH 11 0
BBX 9 10 1 0
BITMAP
3E00
7F00
E380
C380
C180
C180
C380
E380
7F00
3E00
ENDCHAR
STARTCHAR p
ENCODING 112
SWIDTH 600 0
DWIDTH 11 0
BBX 10 14 0 -4
BITMAP
F780
FF80
71C0
70C0
70C0
70C0
71C0
71C0
7F80
7F00
7000
7000
F800
F800
ENDCHAR
STARTCHAR q
ENCODING 113
SWIDTH 600 0
DWIDTH 11 0
BBX 10 14 1 -4
BITMAP
3F80
7F80
E380
C380
C380
C380
C380
E380
FF80
7B80
0380
0380
07C0
07C0
ENDCHAR
STARTCHAR r
ENCODING 114
SWIDTH 600 0
DWIDTH 11 0
BBX 10 10 0 0
BITMAP
FBC0
FFC0
1C40
1800
1800
1800
1800
1800
FF00
FF00
ENDCHAR
STARTCHAR s
ENCODING 115
SWIDTH 600 0
DWIDTH 11 0
BBX 9 10 1 0
BITMAP
3F00
7F00
E300
7000
7E00
1F00
4380
4380
7F00
7E00
ENDCHAR
STARTCHAR t
ENCODING 116
SWIDTH 600 0
DWIDTH 11 0
BBX 9 12 1 0
BITMAP
3800
3800
FF80
FF80
3800
3800
3800
3800
3800
3880
3F80
1F00
ENDCHAR
STARTCHAR u
ENCODING 117
SWIDTH 600 0
DWIDTH 11 0
BBX 10 10 0 0
BITMAP
F3C0
F3C0
71C0
71C0
71C0
71C0
71C0
73C0
7FC0
3DC0
ENDCHAR
STARTCHAR v
ENCODING 118
SWIDTH 600 0
DWIDTH 11 0
BBX 11 10 0 0
BITMAP
F9E0
F9E0
7080
3180
3980
3900
1B00
1F00
1E00
0E00
ENDCHAR
STARTCHAR w
ENCODING 119
SWIDTH 600 0
DWIDTH 11 0
BBX 11 10 0 0
BITMAP
F0E0
F0E0
6EC0
6EC0
6EC0
6B80
7B80
3B80
3380
3180
ENDCHAR
STARTCHAR x
ENCODING 120
SWIDTH 600 0
DWIDTH 11 0
BBX 11 10 0 0
BITMAP
79C0
79C0
3980
1F00
0E00
0E00
1F00
3380
F7E0
F7E0
ENDCHAR
STARTCHAR y
ENCODING 121
SWIDTH 600 0
DWIDTH 11 0
BBX 11 14 0 -4
BITMAP
F9E0
F9E0
7080
3980
3980
1F00
1F00
1E00
0E00
0C00
0C00
1C00
7E00
7E00
ENDCHAR
STARTCHAR z
ENCODING 122
SWIDTH 600 0
DWIDTH 11 0
BBX 9 10 1 0
BITMAP
FF00
FF00
C700
0E00
1C00
3800
3800
7180
FF80
FF80
ENDCHAR
STARTCHAR braceleft
ENCODING 123
SWIDTH 600 0
DWIDTH 11 0
BBX 8 17 1 -3
BITMAP
0F
1F
18
18
18
1C
18
F8
F0
18
1C
1C
18
18
18
1F
0F
ENDCHAR
STARTCHAR bar
ENCODING 124
SWIDTH 600 0
DWIDTH 11 0
BBX 2 17 4 -3
BITMAP
C0
C0
C0
C0
C0
C0
C0
C0
C0
C0
C0
C0
C0
C0
C0
C0
C0
ENDCHAR
STARTCHAR braceright
ENCODING 125
SWIDTH 600 0
DWIDTH 11 0
BBX 8 17 2 -3
BITMAP
F0
F8
18
18
38
38
38
1F
0F
18
38
38
38
18
18
F8
F0
ENDCHAR
STARTCHAR asciitilde
ENCODING 126
SWIDTH 600 0
DWIDTH 11 0
BBX 9 4 1 4
BITMAP
2180
F980
CF80
C700
ENDCHAR
STARTCHAR nonbreakingspace
ENCODING 160
SWIDTH 600 0
DWIDTH 11 0
BBX 1 1 0 0
BITMAP
00
ENDCHAR
STARTCHAR exclamdown
ENCODING 161
SWIDTH 600 0
DWIDTH 11 0
BBX 3 14 4 -4
BITMAP
E0
E0
00
00
40
40
C0
C0
C0
E0
E0
E0
E0
E0
ENDCHAR
STARTCHAR cent
ENCODING 162
SWIDTH 600 0
DWIDTH 11 0
BBX 9 13 1 0
BITMAP
0400
0400
3F80
7580
E580
E400
E400
E400
F400
7F80
3F80
0400
0400
ENDCHAR
STARTCHAR sterling
ENCODING 163
SWIDTH 600 0
DWIDTH 11 0
BBX 9 13 1 0
BITMAP
0F80
3F80
3980
3800
3800
FE00
FE00
3000
3000
3000
6000
FF80
FF80
ENDCHAR
STARTCHAR currency
ENCODING 164
SWIDTH 600 0
DWIDTH 11 0
BBX 11 11 0 1
BITMAP
4040
C4E0
7F80
3180
6080
60C0
6080
3180
3F80
FEE0
4040
ENDCHAR
STARTCHAR yen
ENCODING 165
SWIDTH 600 0
DWIDTH 11 0
BBX 11 13 0 0
BITMAP
F8E0
F8E0
70C0
3980
1D00
3F80
3F80
0E00
3F80
3F80
0E00
3F80
3F80
ENDCHAR
STARTCHAR brokenbar
ENCODING 166
SWIDTH 600 0
DWIDTH 11 0
BBX 1 17 5 -3
BITMAP
80
80
80
80
80
80
80
00
00
00
80
80
80
80
80
80
80
ENDCHAR
STARTCHAR section
ENCODING 167
SWIDTH 600 0
DWIDTH 11 0
BBX 9 17 1 -4
BITMAP
3F00
7F00
E300
E000
7800
3E00
6F00
C300
E300
7300
7E00
1F00
0700
C380
C300
FF00
1800
ENDCHAR
STARTCHAR dieresis
ENCODING 168
SWIDTH 600 0
DWIDTH 11 0
BBX 6 2 2 12
BITMAP
CC
CC
ENDCHAR
STARTCHAR copyright
ENCODING 169
SWIDTH 600 0
DWIDTH 11 0
BBX 9 14 1 0
BITMAP
3C00
7F00
4100
9F80
BE80
A280
A080
A080
A080
B080
9F80
4900
7F00
3C00
ENDCHAR
STARTCHAR ordfeminine
ENCODING 170
SWIDTH 600 0
DWIDTH 11 0
BBX 9 8 1 5
BITMAP
7E00
7E00
0300
3F00
7F00
E700
7F80
2380
ENDCHAR
STARTCHAR guillemotleft
ENCODING 171
SWIDTH 600 0
DWIDTH 11 0
BBX 9 8 1 1
BITMAP
1100
3980
7300
E700
EE00
7700
3B80
1180
ENDCHAR
STARTCHAR logicalnot
ENCODING 172
SWIDTH 600 0
DWIDTH 11 0
BBX 9 5 1 2
BITMAP
FF80
FF80
0180
0180
0180
ENDCHAR
STARTCHAR sfthyphen
ENCODING 173
SWIDTH 600 0
DWIDTH 11 0
BBX 9 2 1 5
BITMAP
FF80
FF80
ENDCHAR
STARTCHAR registered
ENCODING 174
SWIDTH 600 0
DWIDTH 11 0
BBX 9 14 1 0
BITMAP
3C00
7F00
4100
BD80
BC80
B680
B480
BC80
BC80
B680
B380
4100
7F00
3C00
ENDCHAR
STARTCHAR macron
ENCODING 175
SWIDTH 600 0
DWIDTH 11 0
BBX 11 2 0 13
BITMAP
FFE0
FFE0
ENDCHAR
STARTCHAR degree
ENCODING 176
SWIDTH 600 0
DWIDTH 11 0
BBX 5 6 3 9
BITMAP
20
F0
98
88
F8
70
ENDCHAR
STARTCHAR plusminus
ENCODING 177
SWIDTH 600 0
DWIDTH 11 0
BBX 9 11 1 0
BITMAP
0800
0800
0800
FF80
FF80
0800
0800
0800
0000
FF80
FF80
ENDCHAR
STARTCHAR twosuperior
ENCODING 178
SWIDTH 600 0
DWIDTH 11 0
BBX 7 8 2 5
BITMAP
FC
FC
86
0C
38
E0
FE
FE
ENDCHAR
STARTCHAR threesuperior
ENCODING 179
SWIDTH 600 0
DWIDTH 11 0
BBX 7 8 2 5
BITMAP
FC
FE
0E
7C
7C
06
FC
30
ENDCHAR
STARTCHAR acute
ENCODING 180
SWIDTH 600 0
DWIDTH 11 0
BBX 5 3 3 12
BITMAP
38
60
C0
ENDCHAR
STARTCHAR mu
ENCODING 181
SWIDTH 600 0
DWIDTH 11 0
BBX 11 14 0 -4
BITMAP
F3C0
F3C0
71C0
71C0
71C0
71C0
71C0
71C0
7FE0
7DE0
7000
7000
7000
7000
ENDCHAR
STARTCHAR paragraph
ENCODING 182
SWIDTH 600 0
DWIDTH 11 0
BBX 8 16 1 -3
BITMAP
7F
FF
FB
FB
FB
7B
3B
1B
1B
1B
1B
1B
1B
1B
1B
1B
ENDCHAR
STARTCHAR periodcentered
ENCODING 183
SWIDTH 600 0
DWIDTH 11 0
BBX 3 3 4 7
BITMAP
E0
E0
E0
ENDCHAR
STARTCHAR cedilla
ENCODING 184
SWIDTH 600 0
DWIDTH 11 0
BBX 4 4 3 -4
BITMAP
60
70
F0
F0
ENDCHAR
STARTCHAR onesuperior
ENCODING 185
SWIDTH 600 0
DWIDTH 11 0
BBX 6 7 3 7
BITMAP
F0
F0
30
30
30
FC
FC
ENDCHAR
STARTCHAR ordmasculine
ENCODING 186
SWIDTH 600 0
DWIDTH 11 0
BBX 8 8 1 5
BITMAP
3E
7F
63
E3
E3
63
7E
08
ENDCHAR
STARTCHAR guillemotright
ENCODING 187
SWIDTH 600 0
DWIDTH 11 0
BBX 9 8 1 1
BITMAP
8400
CE00
E700
7380
7B80
6700
CE00
8400
ENDCHAR
STARTCHAR onequarter
ENCODING 188
SWIDTH 600 0
DWIDTH 11 0
BBX 10 14 0 0
BITMAP
1040
E080
A180
2100
2300
2200
2400
24C0
09C0
1AC0
16C0
37C0
20C0
40C0
ENDCHAR
STARTCHAR onehalf
ENCODING 189
SWIDTH 600 0
DWIDTH 11 0
BBX 11 14 0 0
BITMAP
1080
E080
E100
6100
6200
6600
6400
6FC0
0A40
1060
10C0
2100
63E0
C3E0
ENDCHAR
STARTCHAR threequarters
ENCODING 190
SWIDTH 600 0
DWIDTH 11 0
BBX 10 14 0 0
BITMAP
F0C0
F880
1980
7100
7200
9A00
F400
04C0
09C0
0AC0
16C0
37C0
20C0
60C0
ENDCHAR
STARTCHAR questiondown
ENCODING 191
SWIDTH 600 0
DWIDTH 11 0
BBX 9 14 1 -4
BITMAP
0C00
0C00
0000
0000
0C00
0C00
1C00
1800
7000
E000
E180
E180
FF80
3F00
ENDCHAR
STARTCHAR Agrave
ENCODING 192
SWIDTH 600 0
DWIDTH 11 0
BBX 11 18 0 0
BITMAP
3800
1C00
0C00
0600
0000
0E00
0E00
1E00
1F00
1700
3300
3380
2380
3F80
7F80
61C0
F3E0
F3E0
ENDCHAR
STARTCHAR Aacute
ENCODING 193
SWIDTH 600 0
DWIDTH 11 0
BBX 11 18 0 0
BITMAP
0300
0700
0600
0C00
0000
0E00
0E00
1E00
1F00
1700
3300
3380
2380
3F80
7F80
61C0
F3E0
F3E0
ENDCHAR
STARTCHAR Acircumflex
ENCODING 194
SWIDTH 600 0
DWIDTH 11 0
BBX 11 18 0 0
BITMAP
0E00
0E00
1B00
3100
0000
0E00
0E00
1E00
1F00
1700
3300
3380
2380
3F80
7F80
61C0
F3E0
F3E0
ENDCHAR
STARTCHAR Atilde
ENCODING 195
SWIDTH 600 0
DWIDTH 11 0
BBX 11 18 0 0
BITMAP
0900
1D00
3700
3200
0000
0E00
0E00
1E00
1F00
1700
3300
3380
2380
3F80
7F80
61C0
F3E0
F3E0
ENDCHAR
STARTCHAR Adieresis
ENCODING 196
SWIDTH 600 0
DWIDTH 11 0
BBX 11 16 0 0
BITMAP
3300
3300
0000
0E00
0E00
1E00
1F00
1700
3300
3380
2380
3F80
7F80
61C0
F3E0
F3E0
ENDCHAR
STARTCHAR Aring
ENCODING 197
SWIDTH 600 0
DWIDTH 11 0
BBX 11 18 0 0
BITMAP
0E00
0E00
1200
1A00
0E00
0E00
0E00
1E00
1F00
1700
3300
3380
2380
3F80
7F80
61C0
F3E0
F3E0
ENDCHAR
STARTCHAR AE
ENCODING 198
SWIDTH 600 0
DWIDTH 11 0
BBX 10 13 0 0
BITMAP
0FC0
0FC0
1E40
1E00
1600
3780
3780
3600
3E00
7E00
6640
E7C0
E7C0
ENDCHAR
STARTCHAR Ccedilla
ENCODING 199
SWIDTH 600 0
DWIDTH 11 0
BBX 10 17 0 -4
BITMAP
0FC0
3FC0
38C0
7040
6000
E000
E000
E000
6000
7000
3800
3FC0
0FC0
0400
0300
0700
0700
ENDCHAR
STARTCHAR Egrave
ENCODING 200
SWIDTH 600 0
DWIDTH 11 0
BBX 10 18 0 0
BITMAP
3800
1800
0C00
0600
0000
FFC0
FFC0
30C0
3000
3300
3F00
3F00
3300
3000
3040
3040
FFC0
FFC0
ENDCHAR
STARTCHAR Eacute
ENCODING 201
SWIDTH 600 0
DWIDTH 11 0
BBX 10 18 0 0
BITMAP
0380
0300
0600
0C00
0000
FFC0
FFC0
30C0
3000
3300
3F00
3F00
3300
3000
3040
3040
FFC0
FFC0
ENDCHAR
STARTCHAR Ecircumflex
ENCODING 202
SWIDTH 600 0
DWIDTH 11 0
BBX 10 18 0 0
BITMAP
0E00
0F00
1B00
1180
0000
FFC0
FFC0
30C0
3000
3300
3F00
3F00
3300
3000
3040
3040
FFC0
FFC0
ENDCHAR
STARTCHAR Edieresis
ENCODING 203
SWIDTH 600 0
DWIDTH 11 0
BBX 10 16 0 0
BITMAP
3300
3300
0000
FFC0
FFC0
30C0
3000
3300
3F00
3F00
3300
3000
3040
3040
FFC0
FFC0
ENDCHAR
STARTCHAR Igrave
ENCODING 204
SWIDTH 600 0
DWIDTH 11 0
BBX 9 18 1 0
BITMAP
7000
3800
1800
0C00
0000
FF80
FF80
1C00
1C00
1C00
1C00
1C00
1C00
1C00
1C00
1C00
FF80
FF80
ENDCHAR
STARTCHAR Iacute
ENCODING 205
SWIDTH 600 0
DWIDTH 11 0
BBX 9 18 1 0
BITMAP
0600
0C00
1800
1000
0000
FF80
FF80
1C00
1C00
1C00
1C00
1C00
1C00
1C00
1C00
1C00
FF80
FF80
ENDCHAR
STARTCHAR Icircumflex
ENCODING 206
SWIDTH 600 0
DWIDTH 11 0
BBX 9 18 1 0
BITMAP
1C00
1C00
3600
6200
0000
FF80
FF80
1C00
1C00
1C00
1C00
1C00
1C00
1C00
1C00
1C00
FF80
FF80
ENDCHAR
STARTCHAR Idieresis
ENCODING 207
SWIDTH 600 0
DWIDTH 11 0
BBX 9 16 1 0
BITMAP
6600
6600
0000
FF80
FF80
1C00
1C00
1C00
1C00
1C00
1C00
1C00
1C00
1C00
FF80
FF80
ENDCHAR
STARTCHAR Eth
ENCODING 208
SWIDTH 600 0
DWIDTH 11 0
BBX 10 13 0 0
BITMAP
FE00
FF80
7180
71C0
71C0
FCC0
FCC0
71C0
71C0
71C0
7380
FF00
FE00
ENDCHAR
STARTCHAR Ntilde
ENCODING 209
SWIDTH 600 0
DWIDTH 11 0
BBX 11 18 0 0
BITMAP
0900
1D00
3700
3200
0000
E1E0
F1E0
70C0
78C0
7CC0
6CC0
6EC0
66C0
67C0
63C0
61C0
F1C0
F0C0
ENDCHAR
STARTCHAR Ograve
ENCODING 210
SWIDTH 600 0
DWIDTH 11 0
BBX 10 18 0 0
BITMAP
3800
0C00
0600
0000
0000
1F00
3F80
71C0
61C0
60C0
E0C0
E0C0
E0C0
60C0
61C0
71C0
3F80
1F00
ENDCHAR
STARTCHAR Oacute
ENCODING 211
SWIDTH 600 0
DWIDTH 11 0
BBX 10 18 0 0
BITMAP
0300
0600
0C00
0000
0000
1F00
3F80
71C0
61C0
60C0
E0C0
E0C0
E0C0
60C0
61C0
71C0
3F80
1F00
ENDCHAR
STARTCHAR Ocircumflex
ENCODING 212
SWIDTH 600 0
DWIDTH 11 0
BBX 10 18 0 0
BITMAP
0E00
1E00
3100
0000
0000
1F00
3F80
71C0
61C0
60C0
E0C0
E0C0
E0C0
60C0
61C0
71C0
3F80
1F00
ENDCHAR
STARTCHAR Otilde
ENCODING 213
SWIDTH 600 0
DWIDTH 11 0
BBX 10 18 0 0
BITMAP
0900
1F00
3700
0000
0000
1F00
3F80
71C0
61C0
60C0
E0C0
E0C0
E0C0
60C0
61C0
71C0
3F80
1F00
ENDCHAR
STARTCHAR Odieresis
ENCODING 214
SWIDTH 600 0
DWIDTH 11 0
BBX 10 17 0 0
BITMAP
3300
3300
0000
0000
1F00
3F80
71C0
61C0
60C0
E0C0
E0C0
E0C0
60C0
61C0
71C0
3F80
1F00
ENDCHAR
STARTCHAR multiply
ENCODING 215
SWIDTH 600 0
DWIDTH 11 0
BBX 9 10 1 1
BITMAP
4100
C180
6300
3600
1C00
1C00
3600
6300
C380
4100
ENDCHAR
STARTCHAR Oslash
ENCODING 216
SWIDTH 600 0
DWIDTH 11 0
BBX 10 13 0 0
BITMAP
1F40
3F80
71C0
61C0
62C0
E6C0
E4C0
E8C0
78C0
71C0
71C0
7F80
DF00
ENDCHAR
STARTCHAR Ugrave
ENCODING 217
SWIDTH 600 0
DWIDTH 11 0
BBX 11 18 0 0
BITMAP
1C00
0C00
0600
0000
0000
F9E0
F9E0
70C0
70C0
70C0
70C0
70C0
70C0
70C0
70C0
70C0
3F80
1F00
ENDCHAR
STARTCHAR Uacute
ENCODING 218
SWIDTH 600 0
DWIDTH 11 0
BBX 11 18 0 0
BITMAP
0380
0700
0E00
0000
0000
F9E0
F9E0
70C0
70C0
70C0
70C0
70C0
70C0
70C0
70C0
70C0
3F80
1F00
ENDCHAR
STARTCHAR Ucircumflex
ENCODING 219
SWIDTH 600 0
DWIDTH 11 0
BBX 11 18 0 0
BITMAP
0600
0F00
1980
0000
0000
F9E0
F9E0
70C0
70C0
70C0
70C0
70C0
70C0
70C0
70C0
70C0
3F80
1F00
ENDCHAR
STARTCHAR Udieresis
ENCODING 220
SWIDTH 600 0
DWIDTH 11 0
BBX 11 17 0 0
BITMAP
1980
1980
0000
0000
F9E0
F9E0
70C0
70C0
70C0
70C0
70C0
70C0
70C0
70C0
70C0
3F80
1F00
ENDCHAR
STARTCHAR Yacute
ENCODING 221
SWIDTH 600 0
DWIDTH 11 0
BBX 11 18 0 0
BITMAP
0380
0300
0600
0C00
0000
F9E0
F9E0
7880
3980
1D00
1F00
0E00
0E00
0E00
0E00
0E00
3F80
3F80
ENDCHAR
STARTCHAR Thorn
ENCODING 222
SWIDTH 600 0
DWIDTH 11 0
BBX 11 13 0 0
BITMAP
FC00
FC00
3F80
3FC0
39C0
38E0
38C0
38C0
39C0
3F80
3C00
FC00
FC00
ENDCHAR
STARTCHAR germandbls
ENCODING 223
SWIDTH 600 0
DWIDTH 11 0
BBX 11 14 0 0
BITMAP
1F00
3F00
7380
7300
7300
7600
7600
7700
7380
71C0
70E0
72E0
FBC0
FB80
ENDCHAR
STARTCHAR agrave
ENCODING 224
SWIDTH 600 0
DWIDTH 11 0
BBX 9 14 1 0
BITMAP
3800
1800
0C00
0000
7E00
FF00
C300
0300
3F00
FF00
E300
C300
FF80
7B80
ENDCHAR
STARTCHAR aacute
ENCODING 225
SWIDTH 600 0
DWIDTH 11 0
BBX 9 14 1 0
BITMAP
0600
0C00
1800
0000
7E00
FF00
C300
0300
3F00
FF00
E300
C300
FF80
7B80
ENDCHAR
STARTCHAR acircumflex
ENCODING 226
SWIDTH 600 0
DWIDTH 11 0
BBX 9 14 1 0
BITMAP
1C00
3600
6300
0000
7E00
FF00
C300
0300
3F00
FF00
E300
C300
FF80
7B80
ENDCHAR
STARTCHAR atilde
ENCODING 227
SWIDTH 600 0
DWIDTH 11 0
BBX 9 14 1 0
BITMAP
3200
7E00
6400
0000
7E00
FF00
C300
0300
3F00
FF00
E300
C300
FF80
7B80
ENDCHAR
STARTCHAR adieresis
ENCODING 228
SWIDTH 600 0
DWIDTH 11 0
BBX 9 13 1 0
BITMAP
3600
3600
0000
7E00
FF00
C300
0300
3F00
FF00
E300
C300
FF80
7B80
ENDCHAR
STARTCHAR aring
ENCODING 229
SWIDTH 600 0
DWIDTH 11 0
BBX 9 16 1 0
BITMAP
1C00
1E00
3200
1C00
0800
0000
7E00
FF00
C300
0300
3F00
FF00
E300
C300
FF80
7B80
ENDCHAR
STARTCHAR ae
ENCODING 230
SWIDTH 600 0
DWIDTH 11 0
BBX 10 10 0 0
BITMAP
7B80
7FC0
4EC0
0CC0
7FC0
7FC0
EC00
EE00
7FC0
73C0
ENDCHAR
STARTCHAR ccedilla
ENCODING 231
SWIDTH 600 0
DWIDTH 11 0
BBX 9 14 1 -4
BITMAP
1F80
7F80
E080
C080
C000
C000
E000
E000
7F80
3F80
0800
1600
1E00
1C00
ENDCHAR
STARTCHAR egrave
ENCODING 232
SWIDTH 600 0
DWIDTH 11 0
BBX 9 14 1 0
BITMAP
3800
0C00
0400
0000
3E00
7F00
E380
C180
FF80
FF80
C000
E000
7F80
3F80
ENDCHAR
STARTCHAR eacute
ENCODING 233
SWIDTH 600 0
DWIDTH 11 0
BBX 9 14 1 0
BITMAP
0700
0C00
1800
0000
3E00
7F00
E380
C180
FF80
FF80
C000
E000
7F80
3F80
ENDCHAR
STARTCHAR ecircumflex
ENCODING 234
SWIDTH 600 0
DWIDTH 11 0
BBX 9 14 1 0
BITMAP
1C00
1600
2300
0000
3E00
7F00
E380
C180
FF80
FF80
C000
E000
7F80
3F80
ENDCHAR
STARTCHAR edieresis
ENCODING 235
SWIDTH 600 0
DWIDTH 11 0
BBX 9 13 1 0
BITMAP
3300
3300
0000
3E00
7F00
E380
C180
FF80
FF80
C000
E000
7F80
3F80
ENDCHAR
STARTCHAR igrave
ENCODING 236
SWIDTH 600 0
DWIDTH 11 0
BBX 9 14 1 0
BITMAP
3800
1800
0400
0000
FC00
FC00
1C00
1C00
1C00
1C00
1C00
1C00
FF80
FF80
ENDCHAR
STARTCHAR iacute
ENCODING 237
SWIDTH 600 0
DWIDTH 11 0
BBX 9 14 1 0
BITMAP
0700
0C00
1000
0000
FC00
FC00
1C00
1C00
1C00
1C00
1C00
1C00
FF80
FF80
ENDCHAR
STARTCHAR icircumflex
ENCODING 238
SWIDTH 600 0
DWIDTH 11 0
BBX 9 14 1 0
BITMAP
1C00
3600
0100
0000
FC00
FC00
1C00
1C00
1C00
1C00
1C00
1C00
FF80
FF80
ENDCHAR
STARTCHAR idieresis
ENCODING 239
SWIDTH 600 0
DWIDTH 11 0
BBX 9 13 1 0
BITMAP
3300
3300
0000
FC00
FC00
1C00
1C00
1C00
1C00
1C00
1C00
FF80
FF80
ENDCHAR
STARTCHAR eth
ENCODING 240
SWIDTH 600 0
DWIDTH 11 0
BBX 9 15 1 0
BITMAP
0400
EC00
F800
7E00
C700
3F00
7F80
E380
C380
C180
C180
C380
E380
7F00
3E00
ENDCHAR
STARTCHAR ntilde
ENCODING 241
SWIDTH 600 0
DWIDTH 11 0
BBX 11 14 0 0
BITMAP
1900
3F00
2200
0000
F780
FF80
71C0
71C0
71C0
71C0
71C0
71C0
FBE0
FBE0
ENDCHAR
STARTCHAR ograve
ENCODING 242
SWIDTH 600 0
DWIDTH 11 0
BBX 9 14 1 0
BITMAP
7000
1800
0C00
0000
3E00
7F00
E380
C380
C180
C180
C380
E380
7F00
3E00
ENDCHAR
STARTCHAR oacute
ENCODING 243
SWIDTH 600 0
DWIDTH 11 0
BBX 9 14 1 0
BITMAP
0E00
0C00
1800
0000
3E00
7F00
E380
C380
C180
C180
C380
E380
7F00
3E00
ENDCHAR
STARTCHAR ocircumflex
ENCODING 244
SWIDTH 600 0
DWIDTH 11 0
BBX 9 14 1 0
BITMAP
1C00
3600
6200
0000
3E00
7F00
E380
C380
C180
C180
C380
E380
7F00
3E00
ENDCHAR
STARTCHAR otilde
ENCODING 245
SWIDTH 600 0
DWIDTH 11 0
BBX 9 14 1 0
BITMAP
3A00
7E00
6400
0000
3E00
7F00
E380
C380
C180
C180
C380
E380
7F00
3E00
ENDCHAR
STARTCHAR odieresis
ENCODING 246
SWIDTH 600 0
DWIDTH 11 0
BBX 9 13 1 0
BITMAP
6600
6600
0000
3E00
7F00
E380
C380
C180
C180
C380
E380
7F00
3E00
ENDCHAR
STARTCHAR divide
ENCODING 247
SWIDTH 600 0
DWIDTH 11 0
BBX 9 11 1 0
BITMAP
1C00
1C00
1C00
0000
FF80
FF80
0000
0000
1C00
1C00
1C00
ENDCHAR
STARTCHAR oslash
ENCODING 248
SWIDTH 600 0
DWIDTH 11 0
BBX 9 10 1 0
BITMAP
3E80
7F00
E380
C780
C980
D980
F180
E380
7F00
BE00
ENDCHAR
STARTCHAR ugrave
ENCODING 249
SWIDTH 600 0
DWIDTH 11 0
BBX 10 14 0 0
BITMAP
3800
0C00
0200
0000
F3C0
F3C0
71C0
71C0
71C0
71C0
71C0
73C0
7FC0
3DC0
ENDCHAR
STARTCHAR uacute
ENCODING 250
SWIDTH 600 0
DWIDTH 11 0
BBX 10 14 0 0
BITMAP
0700
0600
0800
0000
F3C0
F3C0
71C0
71C0
71C0
71C0
71C0
71C0
7FC0
3DC0
ENDCHAR
STARTCHAR ucircumflex
ENCODING 251
SWIDTH 600 0
DWIDTH 11 0
BBX 10 14 0 0
BITMAP
0E00
1B00
2000
0000
F3C0
F3C0
71C0
71C0
71C0
71C0
71C0
71C0
7FC0
3DC0
ENDCHAR
STARTCHAR udieresis
ENCODING 252
SWIDTH 600 0
DWIDTH 11 0
BBX 10 13 0 0
BITMAP
3300
3300
0000
F3C0
F3C0
71C0
71C0
71C0
71C0
71C0
71C0
7FC0
3DC0
ENDCHAR
STARTCHAR yacute
ENCODING 253
SWIDTH 600 0
DWIDTH 11 0
BBX 11 18 0 -4
BITMAP
0380
0600
0000
0000
F9E0
F9E0
7080
3980
3980
1F00
1F00
1E00
0E00
0C00
0C00
1C00
7E00
7E00
ENDCHAR
STARTCHAR thorn
ENCODING 254
SWIDTH 600 0
DWIDTH 11 0
BBX 10 18 0 -4
BITMAP
F000
F000
7000
7000
7780
7F80
71C0
70C0
70C0
70C0
71C0
71C0
7F80
7F00
7000
7000
F800
F800
ENDCHAR
STARTCHAR ydieresis
ENCODING 255
SWIDTH 600 0
DWIDTH 11 0
BBX 11 17 0 -4
BITMAP
1980
1980
0000
F9E0
F9E0
7080
3980
3980
1F00
1F00
1E00
0E00
0C00
0C00
1C00
7E00
7E00
ENDCHAR
STARTCHAR Amacron
ENCODING 256
SWIDTH 600 0
DWIDTH 11 0
BBX 11 17 0 0
BITMAP
3F80
3F80
0000
0000
0E00
0E00
1E00
1F00
1700
3300
3380
2380
3F80
7F80
61C0
F3E0
F3E0
ENDCHAR
STARTCHAR amacron
ENCODING 257
SWIDTH 600 0
DWIDTH 11 0
BBX 9 13 1 0
BITMAP
7F00
7F00
0000
7E00
FF00
C300
0300
3F00
FF00
E300
C300
FF80
7B80
ENDCHAR
STARTCHAR Abreve
ENCODING 258
SWIDTH 600 0
DWIDTH 11 0
BBX 11 18 0 0
BITMAP
2180
1100
1F00
0400
0000
0E00
0E00
1E00
1F00
1700
3300
3380
2380
3F80
7F80
61C0
F3E0
F3E0
ENDCHAR
STARTCHAR abreve
ENCODING 259
SWIDTH 600 0
DWIDTH 11 0
BBX 9 14 1 0
BITMAP
6300
3E00
0800
0000
7E00
FF00
C300
0300
3F00
FF00
E300
C300
FF80
7B80
ENDCHAR
STARTCHAR Aogonek
ENCODING 260
SWIDTH 600 0
DWIDTH 11 0
BBX 11 17 0 -4
BITMAP
0E00
0E00
1E00
1F00
1700
3300
3380
3380
3F80
7F80
61C0
F3E0
F3E0
0100
0300
03C0
01C0
ENDCHAR
STARTCHAR aogonek
ENCODING 261
SWIDTH 600 0
DWIDTH 11 0
BBX 9 14 1 -4
BITMAP
7E00
FF00
C300
0300
0F00
7F00
E300
C300
FF80
7B80
0200
0400
0780
0780
ENDCHAR
STARTCHAR Cacute
ENCODING 262
SWIDTH 600 0
DWIDTH 11 0
BBX 10 18 0 0
BITMAP
0180
0300
0600
0000
0000
0FC0
3FC0
38C0
7040
6000
E000
E000
E000
6000
7000
3800
3FC0
0FC0
ENDCHAR
STARTCHAR cacute
ENCODING 263
SWIDTH 600 0
DWIDTH 11 0
BBX 9 14 1 0
BITMAP
0700
0600
0C00
0000
1F80
7F80
E080
C080
C000
C000
E000
E000
7F80
3F80
ENDCHAR
STARTCHAR Ccircumflex
ENCODING 264
SWIDTH 600 0
DWIDTH 11 0
BBX 10 18 0 0
BITMAP
0700
0780
18C0
0000
0000
0FC0
3FC0
38C0
7040
6000
E000
E000
E000
6000
7000
3800
3FC0
0FC0
ENDCHAR
STARTCHAR ccircumflex
ENCODING 265
SWIDTH 600 0
DWIDTH 11 0
BBX 9 14 1 0
BITMAP
0E00
1B00
3180
0000
1F80
7F80
E080
C080
C000
C000
E000
E000
7F80
3F80
ENDCHAR
STARTCHAR Cdotaccent
ENCODING 266
SWIDTH 600 0
DWIDTH 11 0
BBX 10 18 0 0
BITMAP
0700
0700
0700
0000
0000
0FC0
3FC0
38C0
7040
6000
E000
E000
E000
6000
7000
3800
3FC0
0FC0
ENDCHAR
STARTCHAR cdotaccent
ENCODING 267
SWIDTH 600 0
DWIDTH 11 0
BBX 9 14 1 0
BITMAP
0E00
0E00
0E00
0000
1F80
7F80
E080
C080
C000
C000
E000
E000
7F80
3F80
ENDCHAR
STARTCHAR Ccaron
ENCODING 268
SWIDTH 600 0
DWIDTH 11 0
BBX 10 18 0 0
BITMAP
18C0
0D80
0700
0700
0000
0FC0
3FC0
38C0
7000
6000
E000
E000
E000
6000
7000
3840
3FC0
0FC0
ENDCHAR
STARTCHAR ccaron
ENCODING 269
SWIDTH 600 0
DWIDTH 11 0
BBX 9 14 1 0
BITMAP
3180
1B00
0E00
0000
1F80
7F80
E080
C080
C000
C000
E000
E000
7F80
3F80
ENDCHAR
STARTCHAR Dcaron
ENCODING 270
SWIDTH 600 0
DWIDTH 11 0
BBX 10 18 0 0
BITMAP
2100
3200
1E00
0C00
0000
FE00
FF80
7180
71C0
71C0
70C0
70C0
71C0
71C0
71C0
7380
FF00
FE00
ENDCHAR
STARTCHAR dcaron
ENCODING 271
SWIDTH 600 0
DWIDTH 11 0
BBX 11 14 0 0
BITMAP
0760
0760
0360
0360
3F40
7F00
6300
E300
C300
C300
C300
E700
7F80
3B80
ENDCHAR
STARTCHAR Dcroat
ENCODING 272
SWIDTH 600 0
DWIDTH 11 0
BBX 10 13 0 0
BITMAP
FE00
FF80
7180
71C0
71C0
FCC0
FCC0
71C0
71C0
71C0
7380
FF00
FE00
ENDCHAR
STARTCHAR dcroat
ENCODING 273
SWIDTH 600 0
DWIDTH 11 0
BBX 10 14 1 0
BITMAP
0780
0FC0
0FC0
0380
3F80
7F80
E380
C380
C380
C380
C380
E380
FF80
7B80
ENDCHAR
STARTCHAR Emacron
ENCODING 274
SWIDTH 600 0
DWIDTH 11 0
BBX 10 17 0 0
BITMAP
3F00
3F00
0000
0000
FFC0
FFC0
30C0
3000
3300
3F00
3F00
3300
3000
3040
3040
FFC0
FFC0
ENDCHAR
STARTCHAR emacron
ENCODING 275
SWIDTH 600 0
DWIDTH 11 0
BBX 9 13 1 0
BITMAP
3F00
3F00
0000
3E00
7F00
E380
C180
FF80
FF80
C000
E000
7F80
3F80
ENDCHAR
STARTCHAR Ebreve
ENCODING 276
SWIDTH 600 0
DWIDTH 11 0
BBX 10 18 0 0
BITMAP
2100
3100
1F00
0400
0000
FFC0
FFC0
30C0
3000
3300
3F00
3F00
3300
3000
3040
3040
FFC0
FFC0
ENDCHAR
STARTCHAR ebreve
ENCODING 277
SWIDTH 600 0
DWIDTH 11 0
BBX 9 14 1 0
BITMAP
2300
3E00
0800
0000
3E00
7F00
E380
C180
FF80
FF80
C000
E000
7F80
3F80
ENDCHAR
STARTCHAR Edotaccent
ENCODING 278
SWIDTH 600 0
DWIDTH 11 0
BBX 10 17 0 0
BITMAP
0E00
0E00
0E00
0000
FFC0
FFC0
30C0
3000
3300
3F00
3F00
3300
3000
3040
3040
FFC0
FFC0
ENDCHAR
STARTCHAR edotaccent
ENCODING 279
SWIDTH 600 0
DWIDTH 11 0
BBX 9 14 1 0
BITMAP
1C00
1C00
1C00
0000
3E00
7F00
E380
C180
FF80
FF80
C000
E000
7F80
3F80
ENDCHAR
STARTCHAR Eogonek
ENCODING 280
SWIDTH 600 0
DWIDTH 11 0
BBX 10 17 0 -4
BITMAP
FFC0
FFC0
30C0
3000
3000
3300
3F00
3F00
3300
3040
3040
FFC0
FFC0
0100
0200
03C0
03C0
ENDCHAR
STARTCHAR eogonek
ENCODING 281
SWIDTH 600 0
DWIDTH 11 0
BBX 9 14 1 -4
BITMAP
3E00
7F00
E380
E380
C180
FF80
FF80
E000
7F80
3F80
0400
0800
0F00
0F00
ENDCHAR
STARTCHAR Ecaron
ENCODING 282
SWIDTH 600 0
DWIDTH 11 0
BBX 10 18 0 0
BITMAP
1080
1900
0F00
0600
0000
FFC0
FFC0
30C0
3000
3300
3F00
3F00
3300
3000
3040
3040
FFC0
FFC0
ENDCHAR
STARTCHAR ecaron
ENCODING 283
SWIDTH 600 0
DWIDTH 11 0
BBX 9 14 1 0
BITMAP
3300
1E00
0C00
0000
3E00
7F00
E380
C180
FF80
FF80
C000
E000
7F80
3F80
ENDCHAR
STARTCHAR Gcircumflex
ENCODING 284
SWIDTH 600 0
DWIDTH 11 0
BBX 10 18 0 0
BITMAP
0700
0780
18C0
0000
0000
0FC0
3FC0
38C0
70C0
6000
E000
E3C0
E3C0
70C0
70C0
38C0
3FC0
0FC0
ENDCHAR
STARTCHAR gcircumflex
ENCODING 285
SWIDTH 600 0
DWIDTH 11 0
BBX 9 18 1 -4
BITMAP
1C00
3600
4000
0000
3F80
7F80
E380
C380
C380
C380
C380
C780
FF80
7B80
0380
C300
FF00
FE00
ENDCHAR
STARTCHAR Gbreve
ENCODING 286
SWIDTH 600 0
DWIDTH 11 0
BBX 10 18 0 0
BITMAP
18C0
0F80
0700
0000
0000
0FC0
3FC0
38C0
7000
6000
E000
E3C0
E3C0
70C0
70C0
38C0
3FC0
0FC0
ENDCHAR
STARTCHAR gbreve
ENCODING 287
SWIDTH 600 0
DWIDTH 11 0
BBX 9 18 1 -4
BITMAP
6200
3E00
0800
0000
3F80
7F80
E380
C380
C380
C380
C380
C780
FF80
7B80
0380
C300
FF00
FE00
ENDCHAR
STARTCHAR Gdotaccent
ENCODING 288
SWIDTH 600 0
DWIDTH 11 0
BBX 10 18 0 0
BITMAP
0700
0700
0700
0000
0000
0FC0
3FC0
38C0
70C0
6000
E000
E3C0
E3C0
70C0
70C0
38C0
3FC0
0FC0
ENDCHAR
STARTCHAR gdotaccent
ENCODING 289
SWIDTH 600 0
DWIDTH 11 0
BBX 9 18 1 -4
BITMAP
1C00
1C00
1C00
0000
3F80
7F80
E380
C380
C380
C380
C380
C780
FF80
7B80
0380
C300
FF00
FE00
ENDCHAR
STARTCHAR Gcommaaccent
ENCODING 290
SWIDTH 600 0
DWIDTH 11 0
BBX 10 17 0 -4
BITMAP
0FC0
3FC0
38C0
70C0
6000
E000
E000
E3C0
73C0
70C0
38C0
3FC0
0FC0
0400
0700
0F00
0E00
ENDCHAR
STARTCHAR gcommaaccent
ENCODING 291
SWIDTH 600 0
DWIDTH 11 0
BBX 9 21 1 -4
BITMAP
0400
0800
1800
1C00
1C00
1C00
0000
3F80
7F80
E380
C380
C380
C380
C380
C780
FF80
7B80
0380
C300
FF00
FE00
ENDCHAR
STARTCHAR Hcircumflex
ENCODING 292
SWIDTH 600 0
DWIDTH 11 0
BBX 10 18 0 0
BITMAP
0E00
0E00
1B00
3100
0000
FBC0
FBC0
71C0
71C0
71C0
7FC0
7FC0
71C0
71C0
71C0
71C0
FBC0
FBC0
ENDCHAR
STARTCHAR hcircumflex
ENCODING 293
SWIDTH 600 0
DWIDTH 11 0
BBX 11 18 0 0
BITMAP
0E00
1A00
3300
0000
F000
F000
7000
7000
7780
7F80
71C0
71C0
71C0
71C0
71C0
71C0
FBE0
FBE0
ENDCHAR
STARTCHAR Hbar
ENCODING 294
SWIDTH 600 0
DWIDTH 11 0
BBX 10 13 0 0
BITMAP
FBC0
FBC0
FFC0
FFC0
71C0
7FC0
7FC0
71C0
71C0
71C0
71C0
FBC0
FBC0
ENDCHAR
STARTCHAR hbar
ENCODING 295
SWIDTH 600 0
DWIDTH 11 0
BBX 11 14 0 0
BITMAP
F000
F000
FC00
FC00
7780
7F80
71C0
71C0
71C0
71C0
71C0
71C0
FBE0
FBE0
ENDCHAR
STARTCHAR Itilde
ENCODING 296
SWIDTH 600 0
DWIDTH 11 0
BBX 9 18 1 0
BITMAP
1200
3A00
6E00
6400
0000
FF80
FF80
1C00
1C00
1C00
1C00
1C00
1C00
1C00
1C00
1C00
FF80
FF80
ENDCHAR
STARTCHAR itilde
ENCODING 297
SWIDTH 600 0
DWIDTH 11 0
BBX 9 14 1 0
BITMAP
3200
7E00
4400
0000
FC00
FC00
1C00
1C00
1C00
1C00
1C00
1C00
FF80
FF80
ENDCHAR
STARTCHAR Imacron
ENCODING 298
SWIDTH 600 0
DWIDTH 11 0
BBX 9 17 1 0
BITMAP
7F00
7F00
0000
0000
FF80
FF80
1C00
1C00
1C00
1C00
1C00
1C00
1C00
1C00
1C00
FF80
FF80
ENDCHAR
STARTCHAR imacron
ENCODING 299
SWIDTH 600 0
DWIDTH 11 0
BBX 9 13 1 0
BITMAP
7F00
7F00
0000
FC00
FC00
1C00
1C00
1C00
1C00
1C00
1C00
FF80
FF80
ENDCHAR
STARTCHAR Ibreve
ENCODING 300
SWIDTH 600 0
DWIDTH 11 0
BBX 9 18 1 0
BITMAP
4300
2200
3E00
0800
0000
FF80
FF80
1C00
1C00
1C00
1C00
1C00
1C00
1C00
1C00
1C00
FF80
FF80
ENDCHAR
STARTCHAR ibreve
ENCODING 301
SWIDTH 600 0
DWIDTH 11 0
BBX 9 14 1 0
BITMAP
6300
3E00
0800
0000
FC00
FC00
1C00
1C00
1C00
1C00
1C00
1C00
FF80
FF80
ENDCHAR
STARTCHAR Iogonek
ENCODING 302
SWIDTH 600 0
DWIDTH 11 0
BBX 9 17 1 -4
BITMAP
FF80
FF80
1C00
1C00
1C00
1C00
1C00
1C00
1C00
1C00
1C00
FF80
FF80
0400
0800
0F00
0F00
ENDCHAR
STARTCHAR iogonek
ENCODING 303
SWIDTH 600 0
DWIDTH 11 0
BBX 9 18 1 -4
BITMAP
1C00
1C00
1C00
0000
FC00
FC00
1C00
1C00
1C00
1C00
1C00
1C00
FF80
FF80
0200
0400
0F00
0700
ENDCHAR
STARTCHAR Idotaccent
ENCODING 304
SWIDTH 600 0
DWIDTH 11 0
BBX 9 17 1 0
BITMAP
1C00
1C00
1C00
0000
FF80
FF80
1C00
1C00
1C00
1C00
1C00
1C00
1C00
1C00
1C00
FF80
FF80
ENDCHAR
STARTCHAR dotlessi
ENCODING 305
SWIDTH 600 0
DWIDTH 11 0
BBX 9 10 1 0
BITMAP
FC00
FC00
1C00
1C00
1C00
1C00
1C00
1C00
FF80
FF80
ENDCHAR
STARTCHAR IJ
ENCODING 306
SWIDTH 600 0
DWIDTH 11 0
BBX 10 13 0 0
BITMAP
F3C0
F3C0
70C0
70C0
70C0
70C0
70C0
70C0
70C0
70C0
70C0
F5C0
F780
ENDCHAR
STARTCHAR ij
ENCODING 307
SWIDTH 600 0
DWIDTH 11 0
BBX 10 18 0 -4
BITMAP
31C0
31C0
31C0
0000
F3C0
F3C0
31C0
31C0
31C0
31C0
31C0
31C0
F9C0
F9C0
01C0
01C0
0D80
0F00
ENDCHAR
STARTCHAR Jcircumflex
ENCODING 308
SWIDTH 600 0
DWIDTH 11 0
BBX 9 18 1 0
BITMAP
0E00
0F00
1980
0000
0000
3F80
3F80
0600
0600
0600
0600
0600
0600
C600
C600
C600
FE00
FC00
ENDCHAR
STARTCHAR jcircumflex
ENCODING 309
SWIDTH 600 0
DWIDTH 11 0
BBX 8 18 1 -4
BITMAP
0E
1B
20
00
7E
7E
06
06
06
06
06
06
06
06
86
86
FE
F8
ENDCHAR
STARTCHAR Kcommaaccent
ENCODING 310
SWIDTH 600 0
DWIDTH 11 0
BBX 11 17 0 -4
BITMAP
F9E0
F9E0
7180
7300
7600
7C00
7E00
7F00
7700
7380
71C0
FBE0
FBE0
0800
0E00
0F00
0E00
ENDCHAR
STARTCHAR kcommaaccent
ENCODING 311
SWIDTH 600 0
DWIDTH 11 0
BBX 10 18 0 -4
BITMAP
F000
F000
7000
7000
73C0
73C0
7300
7600
7E00
7E00
7700
7380
FBC0
FBC0
0800
0E00
0F00
0E00
ENDCHAR
STARTCHAR kgreenlandic
ENCODING 312
SWIDTH 600 0
DWIDTH 11 0
BBX 10 10 0 0
BITMAP
F3C0
F3C0
7300
7600
7E00
7E00
7700
7380
FBC0
FBC0
ENDCHAR
STARTCHAR Lacute
ENCODING 313
SWIDTH 600 0
DWIDTH 11 0
BBX 10 18 0 0
BITMAP
0600
0C00
0C00
1800
0000
FE00
FE00
3800
3800
3800
3800
3800
3800
3800
3840
3840
FFC0
FFC0
ENDCHAR
STARTCHAR lacute
ENCODING 314
SWIDTH 600 0
DWIDTH 11 0
BBX 9 18 1 0
BITMAP
0E00
1800
3000
0000
F800
F800
3800
3800
3800
3800
3800
3800
3800
3800
3800
1800
1F80
0F80
ENDCHAR
STARTCHAR Lcommaaccent
ENCODING 315
SWIDTH 600 0
DWIDTH 11 0
BBX 10 17 0 -4
BITMAP
FE00
FE00
3800
3800
3800
3800
3800
3800
3800
3840
3840
FFC0
FFC0
0400
0700
0F00
0E00
ENDCHAR
STARTCHAR lcommaaccent
ENCODING 316
SWIDTH 600 0
DWIDTH 11 0
BBX 9 18 1 -4
BITMAP
F800
F800
3800
3800
3800
3800
3800
3800
3800
3800
3800
1800
1F80
0F80
0800
0E00
1E00
1C00
ENDCHAR
STARTCHAR Lcaron
ENCODING 317
SWIDTH 600 0
DWIDTH 11 0
BBX 10 13 0 0
BITMAP
FEC0
FEC0
38C0
3840
3880
3800
3800
3800
3800
3840
3840
FFC0
FFC0
ENDCHAR
STARTCHAR lcaron
ENCODING 318
SWIDTH 600 0
DWIDTH 11 0
BBX 9 14 1 0
BITMAP
F980
F980
3980
3880
3980
3800
3800
3800
3800
3800
3800
1800
1F80
0F80
ENDCHAR
STARTCHAR Ldot
ENCODING 319
SWIDTH 600 0
DWIDTH 11 0
BBX 10 13 0 0
BITMAP
FE00
FE00
3800
3800
3B80
3B80
3B80
3800
3840
3840
3840
FFC0
FFC0
ENDCHAR
STARTCHAR ldot
ENCODING 320
SWIDTH 600 0
DWIDTH 11 0
BBX 10 14 1 0
BITMAP
F800
F800
3800
3800
3800
39C0
39C0
39C0
3800
3800
3800
1800
1F80
0F80
ENDCHAR
STARTCHAR Lslash
ENCODING 321
SWIDTH 600 0
DWIDTH 11 0
BBX 10 13 0 0
BITMAP
FE00
FE00
3800
3800
3E00
3E00
7800
F800
B800
3840
3840
FFC0
FFC0
ENDCHAR
STARTCHAR lslash
ENCODING 322
SWIDTH 600 0
DWIDTH 11 0
BBX 9 14 1 0
BITMAP
F800
F800
3800
3800
3900
3F00
3E00
7800
F800
B800
3800
1800
1F80
0F80
ENDCHAR
STARTCHAR Nacute
ENCODING 323
SWIDTH 600 0
DWIDTH 11 0
BBX 11 18 0 0
BITMAP
0300
0600
0400
0C00
0000
E1E0
F1E0
70C0
78C0
7CC0
6CC0
6EC0
66C0
67C0
63C0
61C0
F1C0
F0C0
ENDCHAR
STARTCHAR nacute
ENCODING 324
SWIDTH 600 0
DWIDTH 11 0
BBX 11 14 0 0
BITMAP
0700
0C00
0000
0000
F780
FF80
71C0
71C0
71C0
71C0
71C0
71C0
FBE0
FBE0
ENDCHAR
STARTCHAR Ncommaaccent
ENCODING 325
SWIDTH 600 0
DWIDTH 11 0
BBX 11 17 0 -4
BITMAP
E1E0
F1E0
70C0
78C0
7CC0
6CC0
6EC0
66C0
67C0
63C0
61C0
F1C0
F0C0
0400
0700
0F00
0E00
ENDCHAR
STARTCHAR ncommaaccent
ENCODING 326
SWIDTH 600 0
DWIDTH 11 0
BBX 11 14 0 -4
BITMAP
F780
FF80
71C0
71C0
71C0
71C0
71C0
71C0
FBE0
FBE0
0400
0600
0F00
0E00
ENDCHAR
STARTCHAR Ncaron
ENCODING 327
SWIDTH 600 0
DWIDTH 11 0
BBX 11 18 0 0
BITMAP
3100
1300
1E00
0C00
0000
E1E0
F1E0
70C0
78C0
7CC0
6CC0
6EC0
66C0
67C0
63C0
61C0
F1C0
F0C0
ENDCHAR
STARTCHAR ncaron
ENCODING 328
SWIDTH 600 0
DWIDTH 11 0
BBX 11 14 0 0
BITMAP
3180
1E00
0000
0000
F780
FF80
71C0
71C0
71C0
71C0
71C0
71C0
FBE0
FBE0
ENDCHAR
STARTCHAR napostrophe
ENCODING 329
SWIDTH 600 0
DWIDTH 11 0
BBX 11 16 0 0
BITMAP
C000
C000
C000
4000
C000
8000
F780
FF80
71C0
71C0
71C0
71C0
71C0
71C0
FBE0
FBE0
ENDCHAR
STARTCHAR Eng
ENCODING 330
SWIDTH 600 0
DWIDTH 11 0
BBX 11 17 0 -4
BITMAP
E1E0
F1E0
70C0
78C0
7CC0
6CC0
6EC0
66C0
67C0
63C0
61C0
F1C0
F0C0
00C0
04C0
0780
0780
ENDCHAR
STARTCHAR eng
ENCODING 331
SWIDTH 600 0
DWIDTH 11 0
BBX 10 14 0 -4
BITMAP
F780
FF80
71C0
71C0
71C0
71C0
71C0
71C0
F9C0
F9C0
01C0
0180
0980
0F00
ENDCHAR
STARTCHAR Omacron
ENCODING 332
SWIDTH 600 0
DWIDTH 11 0
BBX 10 17 0 0
BITMAP
3F80
3F80
0000
0000
1F00
3F80
71C0
61C0
60C0
E0C0
E0C0
E0C0
60C0
61C0
71C0
3F80
1F00
ENDCHAR
STARTCHAR omacron
ENCODING 333
SWIDTH 600 0
DWIDTH 11 0
BBX 9 13 1 0
BITMAP
7F00
7F00
0000
3E00
7F00
E380
C380
C180
C180
C380
E380
7F00
3E00
ENDCHAR
STARTCHAR Obreve
ENCODING 334
SWIDTH 600 0
DWIDTH 11 0
BBX 10 18 0 0
BITMAP
2180
1F00
0E00
0000
0000
1F00
3F80
71C0
61C0
60C0
E0C0
E0C0
E0C0
60C0
61C0
71C0
3F80
1F00
ENDCHAR
STARTCHAR obreve
ENCODING 335
SWIDTH 600 0
DWIDTH 11 0
BBX 9 14 1 0
BITMAP
6300
3E00
0800
0000
3E00
7F00
E380
C380
C180
C180
C380
E380
7F00
3E00
ENDCHAR
STARTCHAR Ohungarumlaut
ENCODING 336
SWIDTH 600 0
DWIDTH 11 0
BBX 10 18 0 0
BITMAP
0DC0
0900
1200
0000
0000
1F00
3F80
71C0
61C0
60C0
E0C0
E0C0
E0C0
60C0
61C0
71C0
3F80
1F00
ENDCHAR
STARTCHAR ohungarumlaut
ENCODING 337
SWIDTH 600 0
DWIDTH 11 0
BBX 9 14 1 0
BITMAP
1B80
3200
2400
0000
3E00
7F00
E380
C380
C180
C180
C380
E380
7F00
3E00
ENDCHAR
STARTCHAR OE
ENCODING 338
SWIDTH 600 0
DWIDTH 11 0
BBX 11 13 0 0
BITMAP
3FC0
7FC0
6640
E600
E680
E780
E780
E680
E600
E600
6660
7FE0
3FE0
ENDCHAR
STARTCHAR oe
ENCODING 339
SWIDTH 600 0
DWIDTH 11 0
BBX 10 10 0 0
BITMAP
3B80
7FC0
6EC0
E6C0
E7C0
E7C0
E600
6E00
7FC0
3BC0
ENDCHAR
STARTCHAR Racute
ENCODING 340
SWIDTH 600 0
DWIDTH 11 0
BBX 11 18 0 0
BITMAP
0700
0600
0C00
1800
0000
FF00
FF80
7380
7180
7380
7380
7E00
7E00
7700
7380
7380
F9E0
F8E0
ENDCHAR
STARTCHAR racute
ENCODING 341
SWIDTH 600 0
DWIDTH 11 0
BBX 10 14 0 0
BITMAP
0700
0C00
0000
0000
FBC0
FFC0
1C40
1800
1800
1800
1800
1800
FF00
FF00
ENDCHAR
STARTCHAR Rcommaaccent
ENCODING 342
SWIDTH 600 0
DWIDTH 11 0
BBX 11 17 0 -4
BITMAP
FF00
FF80
7380
7180
7380
7380
7E00
7E00
7700
7380
7380
F9E0
F8E0
0400
0600
0F00
0E00
ENDCHAR
STARTCHAR rcommaaccent
ENCODING 343
SWIDTH 600 0
DWIDTH 11 0
BBX 10 14 0 -4
BITMAP
FBC0
FFC0
1C40
1800
1800
1800
1800
1800
FF00
FF00
1000
1C00
1C00
1C00
ENDCHAR
STARTCHAR Rcaron
ENCODING 344
SWIDTH 600 0
DWIDTH 11 0
BBX 11 18 0 0
BITMAP
6300
3600
1C00
1C00
0000
FF00
FF80
7380
7180
7380
7380
7E00
7E00
7700
7380
7380
F9E0
F8E0
ENDCHAR
STARTCHAR rcaron
ENCODING 345
SWIDTH 600 0
DWIDTH 11 0
BBX 10 14 0 0
BITMAP
3300
1E00
0000
0000
FBC0
FFC0
1C40
1800
1800
1800
1800
1800
FF00
FF00
ENDCHAR
STARTCHAR Sacute
ENCODING 346
SWIDTH 600 0
DWIDTH 11 0
BBX 9 18 1 0
BITMAP
0700
0C00
1800
0000
0000
3F00
7F00
E300
E100
F000
7C00
3E00
0F00
0780
C380
C380
FF00
7E00
ENDCHAR
STARTCHAR sacute
ENCODING 347
SWIDTH 600 0
DWIDTH 11 0
BBX 9 14 1 0
BITMAP
0700
0C00
1800
0000
3F00
7F00
E300
7000
7E00
1F00
4380
4380
7F00
7E00
ENDCHAR
STARTCHAR Scircumflex
ENCODING 348
SWIDTH 600 0
DWIDTH 11 0
BBX 9 18 1 0
BITMAP
1C00
1E00
2300
0000
0000
3F00
7F00
E300
E100
F000
7C00
3E00
0F00
0780
C380
C380
FF00
7E00
ENDCHAR
STARTCHAR scircumflex
ENCODING 349
SWIDTH 600 0
DWIDTH 11 0
BBX 9 14 1 0
BITMAP
1C00
3600
2300
0000
3F00
7F00
E300
7000
7E00
1F00
4380
4380
7F00
7E00
ENDCHAR
STARTCHAR Scedilla
ENCODING 350
SWIDTH 600 0
DWIDTH 11 0
BBX 9 17 1 -4
BITMAP
3F00
7F00
E300
E100
F000
7800
3E00
0F00
0780
C380
C380
FF00
7E00
1800
0C00
1C00
1C00
ENDCHAR
STARTCHAR scedilla
ENCODING 351
SWIDTH 600 0
DWIDTH 11 0
BBX 9 14 1 -4
BITMAP
3F00
7F00
E300
7000
7E00
1F00
4380
4380
7F00
7E00
1800
0400
1E00
1C00
ENDCHAR
STARTCHAR Scaron
ENCODING 352
SWIDTH 600 0
DWIDTH 11 0
BBX 9 18 1 0
BITMAP
2300
3600
1E00
1C00
0000
3F00
7F00
E100
E000
F000
7C00
3E00
0F00
0780
C380
C380
FF00
7E00
ENDCHAR
STARTCHAR scaron
ENCODING 353
SWIDTH 600 0
DWIDTH 11 0
BBX 9 14 1 0
BITMAP
3300
1E00
1C00
0000
3F00
7F00
E300
7300
7E00
1F00
0380
4380
7F00
7E00
ENDCHAR
STARTCHAR Tcommaaccent
ENCODING 354
SWIDTH 600 0
DWIDTH 11 0
BBX 10 17 0 -4
BITMAP
FFC0
FFC0
CE40
0E00
0E00
0E00
0E00
0E00
0E00
0E00
0E00
3F80
3F80
0400
0E00
0F00
0E00
ENDCHAR
STARTCHAR tcommaaccent
ENCODING 355
SWIDTH 600 0
DWIDTH 11 0
BBX 9 16 1 -4
BITMAP
3800
3800
FF00
FF00
3800
3800
3800
3800
3800
3800
3F80
1F00
0800
1600
1E00
1C00
ENDCHAR
STARTCHAR Tcaron
ENCODING 356
SWIDTH 600 0
DWIDTH 11 0
BBX 10 18 0 0
BITMAP
3100
1B00
0E00
0E00
0000
FFC0
FFC0
CE40
0E00
0E00
0E00
0E00
0E00
0E00
0E00
0E00
3F80
3F80
ENDCHAR
STARTCHAR tcaron
ENCODING 357
SWIDTH 600 0
DWIDTH 11 0
BBX 9 16 1 0
BITMAP
0380
0380
0380
0100
3900
3A00
FF00
FF00
3800
3800
3800
3800
3800
3880
3F80
1F00
ENDCHAR
STARTCHAR Tbar
ENCODING 358
SWIDTH 600 0
DWIDTH 11 0
BBX 10 13 0 0
BITMAP
FFC0
FFC0
CE40
0E00
0E00
3F80
3F80
0E00
0E00
0E00
0E00
3F80
3F80
ENDCHAR
STARTCHAR tbar
ENCODING 359
SWIDTH 600 0
DWIDTH 11 0
BBX 9 12 1 0
BITMAP
3800
3800
FF00
FF00
3800
3800
FE00
FE00
3800
3880
3F80
1F00
ENDCHAR
STARTCHAR Utilde
ENCODING 360
SWIDTH 600 0
DWIDTH 11 0
BBX 11 18 0 0
BITMAP
0980
1F80
3700
0000
0000
F9E0
F9E0
70C0
70C0
70C0
70C0
70C0
70C0
70C0
70C0
70C0
3F80
1F00
ENDCHAR
STARTCHAR utilde
ENCODING 361
SWIDTH 600 0
DWIDTH 11 0
BBX 10 14 0 0
BITMAP
1900
3F00
2200
0000
F3C0
F3C0
71C0
71C0
71C0
71C0
71C0
71C0
7FC0
3DC0
ENDCHAR
STARTCHAR Umacron
ENCODING 362
SWIDTH 600 0
DWIDTH 11 0
BBX 11 17 0 0
BITMAP
3F80
3F80
0000
0000
F9E0
F9E0
70C0
70C0
70C0
70C0
70C0
70C0
70C0
70C0
70C0
3F80
1F00
ENDCHAR
STARTCHAR umacron
ENCODING 363
SWIDTH 600 0
DWIDTH 11 0
BBX 10 13 0 0
BITMAP
3F80
3F80
0000
F3C0
F3C0
71C0
71C0
71C0
71C0
71C0
71C0
7FC0
3DC0
ENDCHAR
STARTCHAR Ubreve
ENCODING 364
SWIDTH 600 0
DWIDTH 11 0
BBX 11 18 0 0
BITMAP
1080
1F80
0F00
0000
0000
F9E0
F9E0
70C0
70C0
70C0
70C0
70C0
70C0
70C0
70C0
70C0
3F80
1F00
ENDCHAR
STARTCHAR ubreve
ENCODING 365
SWIDTH 600 0
DWIDTH 11 0
BBX 10 14 0 0
BITMAP
3100
1F00
0400
0000
F3C0
F3C0
71C0
71C0
71C0
71C0
71C0
73C0
7FC0
3DC0
ENDCHAR
STARTCHAR Uring
ENCODING 366
SWIDTH 600 0
DWIDTH 11 0
BBX 11 19 0 0
BITMAP
0600
0F00
0900
0F00
0400
0000
F9E0
F9E0
70C0
70C0
70C0
70C0
70C0
70C0
70C0
70C0
70C0
3F80
1F00
ENDCHAR
STARTCHAR uring
ENCODING 367
SWIDTH 600 0
DWIDTH 11 0
BBX 10 16 0 0
BITMAP
0C00
1E00
1200
1E00
0400
0000
F3C0
F3C0
71C0
71C0
71C0
71C0
71C0
71C0
7FC0
3DC0
ENDCHAR
STARTCHAR Uhungarumlaut
ENCODING 368
SWIDTH 600 0
DWIDTH 11 0
BBX 11 18 0 0
BITMAP
06C0
0D80
1B00
0000
0000
F9E0
F9E0
70C0
70C0
70C0
70C0
70C0
70C0
70C0
70C0
70C0
3F80
1F00
ENDCHAR
STARTCHAR uhungarumlaut
ENCODING 369
SWIDTH 600 0
DWIDTH 11 0
BBX 10 14 0 0
BITMAP
0FC0
0900
1200
0000
F3C0
F3C0
71C0
71C0
71C0
71C0
71C0
71C0
7FC0
3DC0
ENDCHAR
STARTCHAR Uogonek
ENCODING 370
SWIDTH 600 0
DWIDTH 11 0
BBX 11 17 0 -4
BITMAP
F9E0
F9E0
70C0
70C0
70C0
70C0
70C0
70C0
70C0
70C0
70C0
3F80
1F00
0400
0C00
0F00
0F00
ENDCHAR
STARTCHAR uogonek
ENCODING 371
SWIDTH 600 0
DWIDTH 11 0
BBX 10 14 0 -4
BITMAP
F3C0
F3C0
71C0
71C0
71C0
71C0
71C0
71C0
7FC0
3DC0
0100
0200
0200
03C0
ENDCHAR
STARTCHAR Wcircumflex
ENCODING 372
SWIDTH 600 0
DWIDTH 11 0
BBX 11 18 0 0
BITMAP
0600
0F00
1900
1180
0000
E0E0
E0E0
6640
6EC0
6EC0
6EC0
6AC0
6A80
6B80
2B80
3380
3380
3180
ENDCHAR
STARTCHAR wcircumflex
ENCODING 373
SWIDTH 600 0
DWIDTH 11 0
BBX 11 14 0 0
BITMAP
0E00
1B00
0080
0000
F0E0
F0E0
6EC0
6EC0
6EC0
6B80
7B80
3B80
3380
3180
ENDCHAR
STARTCHAR Ycircumflex
ENCODING 374
SWIDTH 600 0
DWIDTH 11 0
BBX 11 18 0 0
BITMAP
0600
0F00
0980
1080
0000
F9E0
F9E0
7880
3980
1D00
1F00
0E00
0E00
0E00
0E00
0E00
3F80
3F80
ENDCHAR
STARTCHAR ycircumflex
ENCODING 375
SWIDTH 600 0
DWIDTH 11 0
BBX 11 18 0 -4
BITMAP
0F00
0900
1080
0000
F9E0
F9E0
7080
3980
3980
1F00
1F00
1E00
0E00
0C00
0C00
1C00
7E00
7E00
ENDCHAR
STARTCHAR Ydieresis
ENCODING 376
SWIDTH 600 0
DWIDTH 11 0
BBX 11 16 0 0
BITMAP
1980
1980
0000
F9E0
F9E0
7880
3980
1D00
1F00
0E00
0E00
0E00
0E00
0E00
3F80
3F80
ENDCHAR
STARTCHAR Zacute
ENCODING 377
SWIDTH 600 0
DWIDTH 11 0
BBX 9 18 1 0
BITMAP
0700
0E00
0C00
1800
0000
FF80
FF80
C700
0700
0E00
1C00
1C00
3800
3800
7180
E180
FF80
FF80
ENDCHAR
STARTCHAR zacute
ENCODING 378
SWIDTH 600 0
DWIDTH 11 0
BBX 9 14 1 0
BITMAP
0700
0C00
1000
0000
FF00
FF00
C700
0E00
1C00
3800
3800
7180
FF80
FF80
ENDCHAR
STARTCHAR Zdotaccent
ENCODING 379
SWIDTH 600 0
DWIDTH 11 0
BBX 9 17 1 0
BITMAP
1C00
1C00
1C00
0000
FF80
FF80
C700
0700
0E00
1C00
1C00
3800
3800
7180
E180
FF80
FF80
ENDCHAR
STARTCHAR zdotaccent
ENCODING 380
SWIDTH 600 0
DWIDTH 11 0
BBX 9 14 1 0
BITMAP
1C00
1C00
1C00
0000
FF00
FF00
C700
0E00
1C00
3800
3800
7180
FF80
FF80
ENDCHAR
STARTCHAR Zcaron
ENCODING 381
SWIDTH 600 0
DWIDTH 11 0
BBX 9 18 1 0
BITMAP
6300
3600
1C00
1C00
0000
FF80
FF80
C700
0700
0E00
1C00
1C00
3800
3800
7180
E180
FF80
FF80
ENDCHAR
STARTCHAR zcaron
ENCODING 382
SWIDTH 600 0
DWIDTH 11 0
BBX 9 14 1 0
BITMAP
6200
3C00
0000
0000
FF00
FF00
C700
0E00
1C00
3800
3800
7180
FF80
FF80
ENDCHAR
STARTCHAR longs
ENCODING 383
SWIDTH 600 0
DWIDTH 11 0
BBX 10 14 1 0
BITMAP
0F80
1FC0
18C0
3800
F800
F800
3800
3800
3800
3800
3800
3800
FF00
FF00
ENDCHAR
STARTCHAR florin
ENCODING 402
SWIDTH 600 0
DWIDTH 11 0
BBX 9 17 1 -4
BITMAP
0780
0F80
1980
3800
3800
3800
FC00
FC00
7000
7000
7000
6000
6000
E000
E000
E000
C000
ENDCHAR
STARTCHAR Aringacute
ENCODING 506
SWIDTH 600 0
DWIDTH 11 0
BBX 11 20 0 0
BITMAP
0380
0300
0600
0E00
0A00
1200
1A00
0E00
0E00
1E00
1F00
1700
1300
3380
3380
3F80
7F80
61C0
F3E0
F3E0
ENDCHAR
STARTCHAR aringacute
ENCODING 507
SWIDTH 600 0
DWIDTH 11 0
BBX 9 18 1 0
BITMAP
0700
0600
0C00
1C00
2200
3C00
1C00
0000
7E00
FF00
C300
0300
3F00
F300
E300
C300
FF80
7B80
ENDCHAR
STARTCHAR AEacute
ENCODING 508
SWIDTH 600 0
DWIDTH 11 0
BBX 10 18 0 0
BITMAP
01C0
0180
0300
0600
0000
0FC0
0FC0
1E40
1E00
1600
3780
3780
3600
3E00
7E00
6640
E7C0
E7C0
ENDCHAR
STARTCHAR aeacute
ENCODING 509
SWIDTH 600 0
DWIDTH 11 0
BBX 10 14 0 0
BITMAP
0380
0600
0C00
0000
7B80
7FC0
4EC0
0CC0
7FC0
7FC0
EC00
EE00
7FC0
73C0
ENDCHAR
STARTCHAR Oslashacute
ENCODING 510
SWIDTH 600 0
DWIDTH 11 0
BBX 10 18 0 0
BITMAP
0300
0600
0C00
0000
0000
1F40
3F80
71C0
61C0
62C0
E6C0
E4C0
E8C0
78C0
71C0
71C0
7F80
DF00
ENDCHAR
STARTCHAR oslashacute
ENCODING 511
SWIDTH 600 0
DWIDTH 11 0
BBX 9 14 1 0
BITMAP
0E00
0C00
1800
0000
3E80
7F00
E380
C780
C980
D980
F180
E380
7F00
BE00
ENDCHAR
STARTCHAR Scommaaccent
ENCODING 536
SWIDTH 600 0
DWIDTH 11 0
BBX 9 17 1 -4
BITMAP
3F00
7F00
E300
E100
F000
7C00
3E00
0F00
0780
C380
C380
FF00
7E00
1000
1C00
3C00
3800
ENDCHAR
STARTCHAR scommaaccent
ENCODING 537
SWIDTH 600 0
DWIDTH 11 0
BBX 9 14 1 -4
BITMAP
3F00
7F00
E300
7000
7E00
1F00
4380
4380
7F00
7E00
0800
0C00
1E00
1C00
ENDCHAR
STARTCHAR Tcommabelow
ENCODING 538
SWIDTH 600 0
DWIDTH 11 0
BBX 10 17 0 -4
BITMAP
FFC0
FFC0
CE40
0E00
0E00
0E00
0E00
0E00
0E00
0E00
0E00
3F80
3F80
0800
0E00
0F00
0E00
ENDCHAR
STARTCHAR tcommabelow
ENCODING 539
SWIDTH 600 0
DWIDTH 11 0
BBX 9 16 1 -4
BITMAP
3800
3800
FF00
FF00
3800
3800
3800
3800
3800
3880
3F80
1F00
0800
0C00
1E00
1C00
ENDCHAR
STARTCHAR circumflex
ENCODING 710
SWIDTH 600 0
DWIDTH 11 0
BBX 6 3 2 12
BITMAP
38
6C
C4
ENDCHAR
STARTCHAR caron
ENCODING 711
SWIDTH 600 0
DWIDTH 11 0
BBX 6 3 2 12
BITMAP
C4
6C
38
ENDCHAR
STARTCHAR macron
ENCODING 713
SWIDTH 600 0
DWIDTH 11 0
BBX 7 2 2 12
BITMAP
FE
FE
ENDCHAR
STARTCHAR breve
ENCODING 728
SWIDTH 600 0
DWIDTH 11 0
BBX 7 3 2 12
BITMAP
C6
7C
38
ENDCHAR
STARTCHAR dotaccent
ENCODING 729
SWIDTH 600 0
DWIDTH 11 0
BBX 3 3 4 12
BITMAP
E0
E0
E0
ENDCHAR
STARTCHAR ring
ENCODING 730
SWIDTH 600 0
DWIDTH 11 0
BBX 4 5 3 12
BITMAP
20
70
90
F0
70
ENDCHAR
STARTCHAR ogonek
ENCODING 731
SWIDTH 600 0
DWIDTH 11 0
BBX 4 4 3 -3
BITMAP
30
40
F0
70
ENDCHAR
STARTCHAR tilde
ENCODING 732
SWIDTH 600 0
DWIDTH 11 0
BBX 6 3 2 12
BITMAP
64
FC
CC
ENDCHAR
STARTCHAR hungarumlaut
ENCODING 733
SWIDTH 600 0
DWIDTH 11 0
BBX 7 3 2 12
BITMAP
76
4C
98
ENDCHAR
STARTCHAR tonos
ENCODING 900
SWIDTH 600 0
DWIDTH 11 0
BBX 3 4 4 12
BITMAP
60
C0
C0
80
ENDCHAR
STARTCHAR dieresistonos
ENCODING 901
SWIDTH 600 0
DWIDTH 11 0
BBX 9 4 1 12
BITMAP
0C00
0C00
C980
D980
ENDCHAR
STARTCHAR Alphatonos
ENCODING 902
SWIDTH 600 0
DWIDTH 11 0
BBX 11 15 0 0
BITMAP
6000
4000
CE00
CE00
1E00
1F00
1700
3300
3380
3380
3F80
7F80
61C0
F3E0
F3E0
ENDCHAR
STARTCHAR anoteleia
ENCODING 903
SWIDTH 600 0
DWIDTH 11 0
BBX 3 3 4 7
BITMAP
E0
E0
E0
ENDCHAR
STARTCHAR Epsilontonos
ENCODING 904
SWIDTH 600 0
DWIDTH 11 0
BBX 11 15 0 0
BITMAP
6000
C000
DFC0
9FC0
1C40
1C00
1C00
1F00
1F00
1D00
1C00
1C60
1C60
3FE0
3FE0
ENDCHAR
STARTCHAR Etatonos
ENCODING 905
SWIDTH 600 0
DWIDTH 11 0
BBX 11 15 0 0
BITMAP
6000
C000
DDE0
9DE0
19C0
19C0
19C0
1FC0
1FC0
19C0
19C0
19C0
19C0
3DE0
3DE0
ENDCHAR
STARTCHAR Iotatonos
ENCODING 906
SWIDTH 600 0
DWIDTH 11 0
BBX 10 15 0 0
BITMAP
6000
C000
DFC0
9FC0
0600
0600
0600
0600
0600
0600
0600
0600
0600
3FC0
3FC0
ENDCHAR
STARTCHAR Omicrontonos
ENCODING 908
SWIDTH 600 0
DWIDTH 11 0
BBX 10 16 0 0
BITMAP
6000
C000
C000
8F00
1F80
39C0
30C0
30C0
70C0
70C0
70C0
30C0
30C0
39C0
1F80
0F00
ENDCHAR
STARTCHAR Upsilontonos
ENCODING 910
SWIDTH 600 0
DWIDTH 11 0
BBX 11 15 0 0
BITMAP
C000
C000
B060
B8E0
1980
0D80
0D00
0F00
0E00
0600
0600
0600
0600
1F80
1F80
ENDCHAR
STARTCHAR Omegatonos
ENCODING 911
SWIDTH 600 0
DWIDTH 11 0
BBX 10 15 0 0
BITMAP
6000
C000
CF00
9F80
39C0
30C0
70C0
70C0
70C0
30C0
30C0
3180
1980
79C0
79C0
ENDCHAR
STARTCHAR iotadieresistonos
ENCODING 912
SWIDTH 600 0
DWIDTH 11 0
BBX 9 15 0 0
BITMAP
0C00
0C00
C980
D980
0000
1C00
1C00
1C00
1C00
1C00
1C00
1C00
1C00
1F80
0F80
ENDCHAR
STARTCHAR Alpha
ENCODING 913
SWIDTH 600 0
DWIDTH 11 0
BBX 11 13 0 0
BITMAP
0E00
0E00
1E00
1F00
1700
3300
3380
2380
3F80
7F80
61C0
F3E0
F3E0
ENDCHAR
STARTCHAR Beta
ENCODING 914
SWIDTH 600 0
DWIDTH 11 0
BBX 10 13 0 0
BITMAP
FF00
FF80
71C0
71C0
7380
7F00
7F00
7380
71C0
71C0
71C0
FFC0
FF00
ENDCHAR
STARTCHAR Gamma
ENCODING 915
SWIDTH 600 0
DWIDTH 11 0
BBX 10 13 0 0
BITMAP
FFC0
FFC0
30C0
30C0
3000
3000
3000
3000
3000
3000
3000
FC00
FC00
ENDCHAR
STARTCHAR uni0394
ENCODING 916
SWIDTH 600 0
DWIDTH 11 0
BBX 11 13 0 0
BITMAP
0E00
0E00
1F00
1700
1300
3380
2380
2180
61C0
41C0
40C0
FFE0
FFE0
ENDCHAR
STARTCHAR Epsilon
ENCODING 917
SWIDTH 600 0
DWIDTH 11 0
BBX 10 13 0 0
BITMAP
FFC0
FFC0
30C0
3000
3300
3F00
3F00
3300
3000
3040
3040
FFC0
FFC0
ENDCHAR
STARTCHAR Zeta
ENCODING 918
SWIDTH 600 0
DWIDTH 11 0
BBX 9 13 1 0
BITMAP
FF80
FF80
C700
0700
0E00
1C00
1C00
3800
3800
7180
E180
FF80
FF80
ENDCHAR
STARTCHAR Eta
ENCODING 919
SWIDTH 600 0
DWIDTH 11 0
BBX 10 13 0 0
BITMAP
F3C0
F3C0
71C0
71C0
71C0
7FC0
7FC0
71C0
71C0
71C0
71C0
F3C0
F3C0
ENDCHAR
STARTCHAR Theta
ENCODING 920
SWIDTH 600 0
DWIDTH 11 0
BBX 10 13 0 0
BITMAP
1F00
3F80
71C0
61C0
60C0
6EC0
EEC0
60C0
60C0
61C0
71C0
3F80
1F00
ENDCHAR
STARTCHAR Iota
ENCODING 921
SWIDTH 600 0
DWIDTH 11 0
BBX 9 13 1 0
BITMAP
FF80
FF80
1C00
1C00
1C00
1C00
1C00
1C00
1C00
1C00
1C00
FF80
FF80
ENDCHAR
STARTCHAR Kappa
ENCODING 922
SWIDTH 600 0
DWIDTH 11 0
BBX 11 13 0 0
BITMAP
F9E0
F9E0
7180
7300
7600
7C00
7E00
7F00
7700
7380
71C0
F9E0
F9E0
ENDCHAR
STARTCHAR Lambda
ENCODING 923
SWIDTH 600 0
DWIDTH 11 0
BBX 11 13 0 0
BITMAP
0E00
0E00
1E00
1F00
1700
3300
3380
2380
2180
6180
61C0
E1E0
E1E0
ENDCHAR
STARTCHAR Mu
ENCODING 924
SWIDTH 600 0
DWIDTH 11 0
BBX 11 13 0 0
BITMAP
E1E0
F1E0
71C0
71C0
53C0
5AC0
5AC0
5AC0
4EC0
4CC0
4CC0
E1E0
E1E0
ENDCHAR
STARTCHAR Nu
ENCODING 925
SWIDTH 600 0
DWIDTH 11 0
BBX 11 13 0 0
BITMAP
E1E0
F1E0
70C0
78C0
7CC0
6CC0
6EC0
66C0
67C0
63C0
61C0
F1C0
F0C0
ENDCHAR
STARTCHAR Xi
ENCODING 926
SWIDTH 600 0
DWIDTH 11 0
BBX 9 13 1 0
BITMAP
FF80
FF80
C180
0000
0000
3E00
3E00
2200
0000
0000
8080
FF80
FF80
ENDCHAR
STARTCHAR Omicron
ENCODING 927
SWIDTH 600 0
DWIDTH 11 0
BBX 10 13 0 0
BITMAP
1F00
3F80
71C0
61C0
60C0
E0C0
E0C0
E0C0
60C0
61C0
71C0
3F80
1F00
ENDCHAR
STARTCHAR Pi
ENCODING 928
SWIDTH 600 0
DWIDTH 11 0
BBX 10 13 0 0
BITMAP
FFC0
FFC0
71C0
71C0
71C0
71C0
71C0
71C0
71C0
71C0
71C0
F3C0
F3C0
ENDCHAR
STARTCHAR Rho
ENCODING 929
SWIDTH 600 0
DWIDTH 11 0
BBX 11 13 0 0
BITMAP
FF80
FFC0
38C0
38E0
38C0
39C0
3F80
3F00
3800
3800
3800
FE00
FE00
ENDCHAR
STARTCHAR Sigma
ENCODING 931
SWIDTH 600 0
DWIDTH 11 0
BBX 9 13 1 0
BITMAP
FF80
FF80
7180
7800
3800
1E00
0C00
1800
3000
6000
C080
FF80
FF80
ENDCHAR
STARTCHAR Tau
ENCODING 932
SWIDTH 600 0
DWIDTH 11 0
BBX 10 13 0 0
BITMAP
FFC0
FFC0
CE40
0E00
0E00
0E00
0E00
0E00
0E00
0E00
0E00
3F80
3F80
ENDCHAR
STARTCHAR Upsilon
ENCODING 933
SWIDTH 600 0
DWIDTH 11 0
BBX 11 13 0 0
BITMAP
E060
F0E0
3980
1B00
1F00
0E00
0E00
0E00
0E00
0E00
0E00
3F00
3F00
ENDCHAR
STARTCHAR Phi
ENCODING 934
SWIDTH 600 0
DWIDTH 11 0
BBX 11 13 0 0
BITMAP
1F00
1F00
3F00
7FC0
6CC0
ECE0
ECE0
ECC0
6DC0
3F80
0E00
1F00
1F00
ENDCHAR
STARTCHAR Chi
ENCODING 935
SWIDTH 600 0
DWIDTH 11 0
BBX 11 13 0 0
BITMAP
F9C0
F9C0
3980
3B00
1F00
0E00
0E00
0F00
1F00
3380
6380
F3E0
F3E0
ENDCHAR
STARTCHAR Psi
ENCODING 936
SWIDTH 600 0
DWIDTH 11 0
BBX 11 13 0 0
BITMAP
CC60
ECE0
6CC0
6CC0
6CC0
3D80
3F80
0E00
0E00
0E00
0E00
1F00
1F00
ENDCHAR
STARTCHAR uni03A9
ENCODING 937
SWIDTH 600 0
DWIDTH 11 0
BBX 10 13 0 0
BITMAP
1F00
3F80
71C0
61C0
E0C0
E0C0
E0C0
60C0
61C0
7180
3180
FBC0
FBC0
ENDCHAR
STARTCHAR Iotadieresis
ENCODING 938
SWIDTH 600 0
DWIDTH 11 0
BBX 9 16 1 0
BITMAP
6600
6600
0000
FF80
FF80
1C00
1C00
1C00
1C00
1C00
1C00
1C00
1C00
1C00
FF80
FF80
ENDCHAR
STARTCHAR Upsilondieresis
ENCODING 939
SWIDTH 600 0
DWIDTH 11 0
BBX 11 16 0 0
BITMAP
1980
1980
0000
E060
F0E0
3980
1B00
1F00
0E00
0E00
0E00
0E00
0E00
0E00
3F00
3F00
ENDCHAR
STARTCHAR alphatonos
ENCODING 940
SWIDTH 600 0
DWIDTH 11 0
BBX 10 15 1 0
BITMAP
0C00
0C00
0800
1800
0000
7980
7980
CD80
CD00
C700
C600
C700
CF00
FB80
71C0
ENDCHAR
STARTCHAR epsilontonos
ENCODING 941
SWIDTH 600 0
DWIDTH 11 0
BBX 9 16 1 0
BITMAP
0600
0C00
0C00
0C00
0000
0000
3F80
7F80
6000
6000
3F00
7F00
E000
E000
FF80
3F80
ENDCHAR
STARTCHAR etatonos
ENCODING 942
SWIDTH 600 0
DWIDTH 11 0
BBX 8 19 1 -4
BITMAP
0C
08
18
18
00
EE
FF
E3
E3
E3
E3
E3
E3
E3
E3
03
03
03
03
ENDCHAR
STARTCHAR iotatonos
ENCODING 943
SWIDTH 600 0
DWIDTH 11 0
BBX 6 16 3 0
BITMAP
30
20
60
60
00
00
E0
E0
E0
E0
E0
E0
E0
E0
FC
7C
ENDCHAR
STARTCHAR upsilondiaeresistonos
ENCODING 944
SWIDTH 600 0
DWIDTH 11 0
BBX 9 15 1 0
BITMAP
0C00
0800
D980
D980
0000
E700
E300
E380
E380
E180
E180
E180
E300
7F00
3C00
ENDCHAR
STARTCHAR alpha
ENCODING 945
SWIDTH 600 0
DWIDTH 11 0
BBX 10 10 1 0
BITMAP
7980
7980
CD80
CD00
C700
C600
C700
CF00
FB80
71C0
ENDCHAR
STARTCHAR beta
ENCODING 946
SWIDTH 600 0
DWIDTH 11 0
BBX 9 18 1 -4
BITMAP
3E00
7F00
6700
6300
E700
E600
EC00
EF00
E380
E380
E380
E380
FF00
FE00
E000
E000
E000
E000
ENDCHAR
STARTCHAR gamma
ENCODING 947
SWIDTH 600 0
DWIDTH 11 0
BBX 11 14 0 -4
BITMAP
E060
70C0
3080
3980
1980
1B00
1F00
0E00
0E00
0E00
0E00
0E00
0E00
0E00
ENDCHAR
STARTCHAR delta
ENCODING 948
SWIDTH 600 0
DWIDTH 11 0
BBX 9 14 1 0
BITMAP
3E00
FE00
E000
F000
3C00
1E00
7700
E380
C380
C180
C380
E380
7F00
3E00
ENDCHAR
STARTCHAR epsilon
ENCODING 949
SWIDTH 600 0
DWIDTH 11 0
BBX 9 10 1 0
BITMAP
3F80
7F80
6000
6000
3F00
7F00
E000
E000
FF80
3F80
ENDCHAR
STARTCHAR zeta
ENCODING 950
SWIDTH 600 0
DWIDTH 11 0
BBX 11 18 0 -4
BITMAP
00C0
83E0
F7C0
7F00
1800
3800
3000
3000
7000
7000
7000
7800
3FC0
1FE0
0060
0060
07C0
0780
ENDCHAR
STARTCHAR eta
ENCODING 951
SWIDTH 600 0
DWIDTH 11 0
BBX 8 14 1 -4
BITMAP
EE
FF
E3
E3
E3
E3
E3
E3
E3
E3
03
03
03
03
ENDCHAR
STARTCHAR theta
ENCODING 952
SWIDTH 600 0
DWIDTH 11 0
BBX 9 14 1 0
BITMAP
3C00
7E00
6300
E300
E380
C380
FF80
FF80
C380
E380
E300
6300
7E00
3C00
ENDCHAR
STARTCHAR iota
ENCODING 953
SWIDTH 600 0
DWIDTH 11 0
BBX 6 10 3 0
BITMAP
E0
E0
E0
E0
E0
E0
E0
E0
FC
7C
ENDCHAR
STARTCHAR kappa
ENCODING 954
SWIDTH 600 0
DWIDTH 11 0
BBX 8 10 2 0
BITMAP
C3
C7
CC
D8
F0
F8
DC
CE
C6
C7
ENDCHAR
STARTCHAR lambda
ENCODING 955
SWIDTH 600 0
DWIDTH 11 0
BBX 11 14 0 0
BITMAP
7000
7800
1C00
0C00
0C00
0E00
1E00
1F00
3700
3380
6380
6180
61C0
E0E0
ENDCHAR
STARTCHAR uni03bc
ENCODING 956
SWIDTH 600 0
DWIDTH 11 0
BBX 9 14 1 -4
BITMAP
E300
E300
E300
E300
E300
E300
E300
E700
FF80
FB80
E000
E000
E000
E000
ENDCHAR
STARTCHAR nu
ENCODING 957
SWIDTH 600 0
DWIDTH 11 0
BBX 10 10 0 0
BITMAP
E0C0
70C0
70C0
30C0
3980
3980
1900
1F00
1E00
0E00
ENDCHAR
STARTCHAR xi
ENCODING 958
SWIDTH 600 0
DWIDTH 11 0
BBX 10 18 0 -4
BITMAP
8780
FF80
3E00
3000
3000
3800
1F80
1F80
3800
7000
6000
7000
7F00
1FC0
00C0
00C0
0FC0
0F80
ENDCHAR
STARTCHAR omicron
ENCODING 959
SWIDTH 600 0
DWIDTH 11 0
BBX 9 10 1 0
BITMAP
3E00
7F00
E380
C380
C180
C180
C380
E380
7F00
3E00
ENDCHAR
STARTCHAR pi
ENCODING 960
SWIDTH 600 0
DWIDTH 11 0
BBX 10 10 0 0
BITMAP
FFC0
FFC0
3180
3180
3180
3180
3180
3180
3180
31C0
ENDCHAR
STARTCHAR rho
ENCODING 961
SWIDTH 600 0
DWIDTH 11 0
BBX 9 14 1 -4
BITMAP
1E00
7F00
6380
E180
E180
E180
E380
E380
FF00
FC00
E000
E000
E000
E000
ENDCHAR
STARTCHAR sigma1
ENCODING 962
SWIDTH 600 0
DWIDTH 11 0
BBX 9 14 1 -4
BITMAP
1F00
3F00
6000
E000
C000
C000
C000
E000
FE00
3F80
0180
0180
0F80
0F00
ENDCHAR
STARTCHAR sigma
ENCODING 963
SWIDTH 600 0
DWIDTH 11 0
BBX 10 10 1 0
BITMAP
3FC0
7FC0
E700
C300
C300
C300
C300
E700
7E00
3C00
ENDCHAR
STARTCHAR tau
ENCODING 964
SWIDTH 600 0
DWIDTH 11 0
BBX 10 10 0 0
BITMAP
FFC0
FFC0
0E00
0E00
0E00
0E00
0E00
0E00
0E00
0E00
ENDCHAR
STARTCHAR upsilon
ENCODING 965
SWIDTH 600 0
DWIDTH 11 0
BBX 9 10 1 0
BITMAP
E700
E300
E380
E380
E180
E180
E180
E300
7F00
3C00
ENDCHAR
STARTCHAR phi
ENCODING 966
SWIDTH 600 0
DWIDTH 11 0
BBX 10 14 0 -4
BITMAP
1380
37C0
64C0
6CC0
CCC0
CCC0
ECC0
6CC0
7DC0
3F80
0C00
0C00
0C00
0C00
ENDCHAR
STARTCHAR chi
ENCODING 967
SWIDTH 600 0
DWIDTH 11 0
BBX 11 14 0 -4
BITMAP
F0C0
7180
3980
3B00
1F00
1E00
0E00
0E00
1F00
1F00
3380
7180
61C0
C0E0
ENDCHAR
STARTCHAR psi
ENCODING 968
SWIDTH 600 0
DWIDTH 11 0
BBX 10 15 0 -4
BITMAP
0C00
CDC0
6CC0
6CC0
6CC0
6CC0
6CC0
6CC0
6CC0
7F80
3F00
0C00
0C00
0C00
0C00
ENDCHAR
STARTCHAR omega
ENCODING 969
SWIDTH 600 0
DWIDTH 11 0
BBX 9 10 1 0
BITMAP
E300
D980
DD80
DD80
9D80
8980
9980
DD80
F780
6700
ENDCHAR
STARTCHAR iotadiaeresis
ENCODING 970
SWIDTH 600 0
DWIDTH 11 0
BBX 7 13 2 0
BITMAP
D8
D8
00
70
70
70
70
70
70
70
70
7E
3E
ENDCHAR
STARTCHAR upsilondiaeresis
ENCODING 971
SWIDTH 600 0
DWIDTH 11 0
BBX 9 13 1 0
BITMAP
6600
6600
0000
E700
E300
E380
E380
E180
E180
E180
E300
7F00
3C00
ENDCHAR
STARTCHAR omicrontonos
ENCODING 972
SWIDTH 600 0
DWIDTH 11 0
BBX 9 16 1 0
BITMAP
0C00
0C00
0800
1800
0000
0000
3E00
7F00
E380
C380
C180
C180
C380
E380
7F00
3E00
ENDCHAR
STARTCHAR upsilontonos
ENCODING 973
SWIDTH 600 0
DWIDTH 11 0
BBX 9 16 1 0
BITMAP
0C00
0C00
0800
1800
0000
0000
E700
E300
E380
E380
E180
E180
E180
E300
7F00
3C00
ENDCHAR
STARTCHAR omegatonos
ENCODING 974
SWIDTH 600 0
DWIDTH 11 0
BBX 9 16 1 0
BITMAP
0E00
0C00
0C00
0800
0000
0000
E300
D980
DD80
DD80
9D80
8980
9980
DD80
F780
6700
ENDCHAR
STARTCHAR uni0400
ENCODING 1024
SWIDTH 600 0
DWIDTH 11 0
BBX 10 18 0 0
BITMAP
3800
1800
0C00
0600
0000
FFC0
FFC0
30C0
3000
3300
3F00
3F00
3300
3000
3040
3040
FFC0
FFC0
ENDCHAR
STARTCHAR uni0401
ENCODING 1025
SWIDTH 600 0
DWIDTH 11 0
BBX 10 16 0 0
BITMAP
3300
3300
0000
FFC0
FFC0
30C0
3000
3300
3F00
3F00
3300
3000
3040
3040
FFC0
FFC0
ENDCHAR
STARTCHAR uni0402
ENCODING 1026
SWIDTH 600 0
DWIDTH 11 0
BBX 10 13 0 0
BITMAP
FF00
FF00
FB00
3800
3900
3F80
38C0
38C0
38C0
38C0
38C0
7BC0
7B80
ENDCHAR
STARTCHAR uni0403
ENCODING 1027
SWIDTH 600 0
DWIDTH 11 0
BBX 10 18 0 0
BITMAP
0600
0C00
1800
1000
0000
FFC0
FFC0
30C0
3000
3000
3000
3000
3000
3000
3000
3000
FC00
FC00
ENDCHAR
STARTCHAR afii10053
ENCODING 1028
SWIDTH 600 0
DWIDTH 11 0
BBX 9 13 1 0
BITMAP
1F80
3F80
6080
E000
C200
FE00
FE00
E200
E000
E000
7000
3F80
1F80
ENDCHAR
STARTCHAR uni0405
ENCODING 1029
SWIDTH 600 0
DWIDTH 11 0
BBX 9 13 1 0
BITMAP
3F00
7F00
E300
E100
F000
7C00
3E00
0F00
0780
C380
C380
FF00
7E00
ENDCHAR
STARTCHAR uni0406
ENCODING 1030
SWIDTH 600 0
DWIDTH 11 0
BBX 9 13 1 0
BITMAP
FF80
FF80
1C00
1C00
1C00
1C00
1C00
1C00
1C00
1C00
1C00
FF80
FF80
ENDCHAR
STARTCHAR uni0407
ENCODING 1031
SWIDTH 600 0
DWIDTH 11 0
BBX 9 16 1 0
BITMAP
6600
6600
0000
FF80
FF80
1C00
1C00
1C00
1C00
1C00
1C00
1C00
1C00
1C00
FF80
FF80
ENDCHAR
STARTCHAR uni0408
ENCODING 1032
SWIDTH 600 0
DWIDTH 11 0
BBX 9 13 1 0
BITMAP
3F80
3F80
0600
0600
0600
0600
0600
0600
C600
C600
C600
FE00
FC00
ENDCHAR
STARTCHAR uni0409
ENCODING 1033
SWIDTH 600 0
DWIDTH 11 0
BBX 11 13 0 0
BITMAP
7E00
7E00
6600
6600
6600
6780
67C0
66C0
6660
6640
66C0
E7C0
C780
ENDCHAR
STARTCHAR uni040A
ENCODING 1034
SWIDTH 600 0
DWIDTH 11 0
BBX 10 13 0 0
BITMAP
EE00
EE00
6600
6600
6600
7F80
7FC0
66C0
6640
66C0
66C0
E7C0
E780
ENDCHAR
STARTCHAR uni040B
ENCODING 1035
SWIDTH 600 0
DWIDTH 11 0
BBX 10 13 0 0
BITMAP
FE00
FE00
FA00
3800
3900
3F80
39C0
39C0
39C0
39C0
39C0
7DC0
7DC0
ENDCHAR
STARTCHAR uni040C
ENCODING 1036
SWIDTH 600 0
DWIDTH 11 0
BBX 11 18 0 0
BITMAP
0380
0700
0600
0C00
0000
F8C0
F9C0
7380
7300
7700
7E00
7E00
7700
7300
7380
7180
F9E0
F9E0
ENDCHAR
STARTCHAR uni040D
ENCODING 1037
SWIDTH 600 0
DWIDTH 11 0
BBX 10 18 0 0
BITMAP
1800
0C00
0C00
0600
0000
F1C0
F1C0
73C0
73C0
77C0
75C0
75C0
7DC0
79C0
79C0
79C0
F3C0
F3C0
ENDCHAR
STARTCHAR uni040E
ENCODING 1038
SWIDTH 600 0
DWIDTH 11 0
BBX 11 17 0 0
BITMAP
1980
1F00
0000
0000
F1E0
F1E0
70C0
3080
3980
1900
1F00
0E00
0E00
0C00
6C00
7800
7000
ENDCHAR
STARTCHAR uni040F
ENCODING 1039
SWIDTH 600 0
DWIDTH 11 0
BBX 10 17 0 -4
BITMAP
FBC0
FBC0
71C0
71C0
71C0
71C0
71C0
71C0
71C0
71C0
71C0
FFC0
FFC0
0C00
0C00
0C00
0C00
ENDCHAR
STARTCHAR uni0410
ENCODING 1040
SWIDTH 600 0
DWIDTH 11 0
BBX 11 13 0 0
BITMAP
0E00
0E00
1E00
1F00
1700
3300
3380
2380
3F80
7F80
61C0
F3E0
F3E0
ENDCHAR
STARTCHAR afii10018
ENCODING 1041
SWIDTH 600 0
DWIDTH 11 0
BBX 9 13 1 0
BITMAP
FF00
FF00
6100
6000
6000
7E00
7F80
6380
6380
6380
6380
FF00
FE00
ENDCHAR
STARTCHAR uni0412
ENCODING 1042
SWIDTH 600 0
DWIDTH 11 0
BBX 10 13 0 0
BITMAP
FF00
FF80
71C0
71C0
7380
7F00
7F00
7380
71C0
71C0
71C0
FFC0
FF00
ENDCHAR
STARTCHAR uni0413
ENCODING 1043
SWIDTH 600 0
DWIDTH 11 0
BBX 10 13 0 0
BITMAP
FFC0
FFC0
30C0
3000
3000
3000
3000
3000
3000
3000
3000
FC00
FC00
ENDCHAR
STARTCHAR uni0414
ENCODING 1044
SWIDTH 600 0
DWIDTH 11 0
BBX 10 17 0 -4
BITMAP
3FC0
3FC0
1980
1980
1980
1980
1980
3980
3180
3180
6180
FFC0
FFC0
C0C0
C0C0
C0C0
C0C0
ENDCHAR
STARTCHAR uni0415
ENCODING 1045
SWIDTH 600 0
DWIDTH 11 0
BBX 10 13 0 0
BITMAP
FFC0
FFC0
30C0
3000
3300
3F00
3F00
3300
3000
3040
3040
FFC0
FFC0
ENDCHAR
STARTCHAR afii10024
ENCODING 1046
SWIDTH 600 0
DWIDTH 11 0
BBX 11 13 0 0
BITMAP
CE60
EEE0
6580
3580
3500
1F00
1F00
3500
3580
6580
64C0
EEE0
CE60
ENDCHAR
STARTCHAR uni0417
ENCODING 1047
SWIDTH 600 0
DWIDTH 11 0
BBX 9 13 1 0
BITMAP
FE00
FF00
C380
0380
0700
7C00
7F00
0380
0380
0180
8380
FF00
FE00
ENDCHAR
STARTCHAR uni0418
ENCODING 1048
SWIDTH 600 0
DWIDTH 11 0
BBX 10 13 0 0
BITMAP
F1C0
F1C0
73C0
73C0
77C0
75C0
75C0
7DC0
79C0
79C0
79C0
F3C0
F3C0
ENDCHAR
STARTCHAR uni0419
ENCODING 1049
SWIDTH 600 0
DWIDTH 11 0
BBX 10 17 0 0
BITMAP
1900
1F00
0000
0000
F1C0
F1C0
73C0
73C0
77C0
75C0
75C0
7DC0
79C0
79C0
79C0
F3C0
F3C0
ENDCHAR
STARTCHAR uni041A
ENCODING 1050
SWIDTH 600 0
DWIDTH 11 0
BBX 11 13 0 0
BITMAP
F8C0
F9C0
7380
7300
7700
7E00
7E00
7700
7300
7380
7180
F9E0
F9E0
ENDCHAR
STARTCHAR afii10029
ENCODING 1051
SWIDTH 600 0
DWIDTH 11 0
BBX 10 13 0 0
BITMAP
3FC0
3FC0
19C0
19C0
19C0
19C0
39C0
39C0
39C0
39C0
31C0
F3C0
E3C0
ENDCHAR
STARTCHAR uni041C
ENCODING 1052
SWIDTH 600 0
DWIDTH 11 0
BBX 11 13 0 0
BITMAP
E1E0
F1E0
71C0
71C0
53C0
5AC0
5AC0
5AC0
4EC0
4CC0
4CC0
E1E0
E1E0
ENDCHAR
STARTCHAR uni041D
ENCODING 1053
SWIDTH 600 0
DWIDTH 11 0
BBX 10 13 0 0
BITMAP
F3C0
F3C0
71C0
71C0
71C0
7FC0
7FC0
71C0
71C0
71C0
71C0
F3C0
F3C0
ENDCHAR
STARTCHAR uni041E
ENCODING 1054
SWIDTH 600 0
DWIDTH 11 0
BBX 10 13 0 0
BITMAP
1F00
3F80
71C0
61C0
60C0
E0C0
E0C0
E0C0
60C0
61C0
71C0
3F80
1F00
ENDCHAR
STARTCHAR uni041F
ENCODING 1055
SWIDTH 600 0
DWIDTH 11 0
BBX 10 13 0 0
BITMAP
FFC0
FFC0
71C0
71C0
71C0
71C0
71C0
71C0
71C0
71C0
71C0
FBC0
FBC0
ENDCHAR
STARTCHAR uni0420
ENCODING 1056
SWIDTH 600 0
DWIDTH 11 0
BBX 11 13 0 0
BITMAP
FF80
FFC0
38C0
38E0
38C0
39C0
3F80
3F00
3800
3800
3800
FE00
FE00
ENDCHAR
STARTCHAR uni0421
ENCODING 1057
SWIDTH 600 0
DWIDTH 11 0
BBX 10 13 0 0
BITMAP
0FC0
3FC0
38C0
7040
6000
E000
E000
E000
6000
7000
3800
3FC0
0FC0
ENDCHAR
STARTCHAR uni0422
ENCODING 1058
SWIDTH 600 0
DWIDTH 11 0
BBX 10 13 0 0
BITMAP
FFC0
FFC0
CE40
0E00
0E00
0E00
0E00
0E00
0E00
0E00
0E00
3F80
3F80
ENDCHAR
STARTCHAR uni0423
ENCODING 1059
SWIDTH 600 0
DWIDTH 11 0
BBX 11 13 0 0
BITMAP
F1E0
F1E0
70C0
3080
3980
1900
1F00
0E00
0E00
0C00
6C00
7800
7000
ENDCHAR
STARTCHAR uni0424
ENCODING 1060
SWIDTH 600 0
DWIDTH 11 0
BBX 11 13 0 0
BITMAP
1F00
1F00
3F00
7FC0
6CC0
ECE0
ECE0
ECC0
6DC0
3F80
0E00
1F00
1F00
ENDCHAR
STARTCHAR uni0425
ENCODING 1061
SWIDTH 600 0
DWIDTH 11 0
BBX 11 13 0 0
BITMAP
F9C0
F9C0
3980
3B00
1E00
0E00
0E00
1F00
1F00
3380
6380
F3E0
F3E0
ENDCHAR
STARTCHAR uni0426
ENCODING 1062
SWIDTH 600 0
DWIDTH 11 0
BBX 10 17 0 -4
BITMAP
FBC0
FBC0
71C0
71C0
71C0
71C0
71C0
71C0
71C0
71C0
71C0
FFC0
FFC0
0040
0040
0040
0040
ENDCHAR
STARTCHAR afii10041
ENCODING 1063
SWIDTH 602 0
DWIDTH 11 0
BBX 10 13 0 0
BITMAP
F3C0
F3C0
61C0
61C0
61C0
71C0
71C0
3FC0
09C0
01C0
01C0
03C0
03C0
ENDCHAR
STARTCHAR uni0428
ENCODING 1064
SWIDTH 600 0
DWIDTH 11 0
BBX 10 13 0 0
BITMAP
EEC0
EEC0
6CC0
6CC0
6CC0
6CC0
6CC0
6CC0
6CC0
6CC0
6CC0
FFC0
FFC0
ENDCHAR
STARTCHAR uni0429
ENCODING 1065
SWIDTH 600 0
DWIDTH 11 0
BBX 10 17 0 -4
BITMAP
EEC0
EEC0
6CC0
6CC0
6CC0
6CC0
6CC0
6CC0
6CC0
6CC0
6CC0
FFC0
FFC0
00C0
00C0
00C0
00C0
ENDCHAR
STARTCHAR afii10044
ENCODING 1066
SWIDTH 600 0
DWIDTH 11 0
BBX 11 13 0 0
BITMAP
F800
F800
1800
1800
1800
1F80
1FC0
18C0
18E0
18C0
19C0
3FC0
3F00
ENDCHAR
STARTCHAR uni042B
ENCODING 1067
SWIDTH 600 0
DWIDTH 11 0
BBX 10 13 0 0
BITMAP
E1C0
E1C0
60C0
60C0
60C0
78C0
7CC0
66C0
66C0
66C0
66C0
FDC0
F9C0
ENDCHAR
STARTCHAR afii10046
ENCODING 1068
SWIDTH 602 0
DWIDTH 11 0
BBX 9 13 1 0
BITMAP
F000
F000
6000
6000
6000
7E00
7F80
6380
6380
6380
6380
FF00
FE00
ENDCHAR
STARTCHAR uni042D
ENCODING 1069
SWIDTH 600 0
DWIDTH 11 0
BBX 9 13 1 0
BITMAP
FC00
FE00
8300
0380
2180
3F80
3F80
2380
0380
0380
0700
FE00
FC00
ENDCHAR
STARTCHAR afii10048
ENCODING 1070
SWIDTH 600 0
DWIDTH 11 0
BBX 10 13 0 0
BITMAP
E380
E780
64C0
6CC0
6CC0
7CC0
7CC0
6CC0
6CC0
6CC0
64C0
E7C0
E380
ENDCHAR
STARTCHAR afii10049
ENCODING 1071
SWIDTH 600 0
DWIDTH 11 0
BBX 10 13 0 0
BITMAP
1FC0
3FC0
31C0
71C0
31C0
39C0
1FC0
0FC0
1DC0
39C0
31C0
F3C0
F3C0
ENDCHAR
STARTCHAR uni0430
ENCODING 1072
SWIDTH 600 0
DWIDTH 11 0
BBX 9 10 1 0
BITMAP
7E00
FF00
C300
0300
3F00
FF00
E300
C300
FF80
7B80
ENDCHAR
STARTCHAR afii10066
ENCODING 1073
SWIDTH 600 0
DWIDTH 11 0
BBX 9 16 1 0
BITMAP
0100
1F00
3F00
7000
E000
E000
DE00
FF00
E380
C380
C180
C180
E380
E380
7F00
3E00
ENDCHAR
STARTCHAR uni0432
ENCODING 1074
SWIDTH 600 0
DWIDTH 11 0
BBX 9 10 1 0
BITMAP
FF00
FF80
6380
6300
7E00
7F00
6380
6380
FF80
FF00
ENDCHAR
STARTCHAR uni0433
ENCODING 1075
SWIDTH 600 0
DWIDTH 11 0
BBX 9 10 1 0
BITMAP
FF80
FF80
7080
7000
7000
7000
7000
7000
FC00
FC00
ENDCHAR
STARTCHAR uni0434
ENCODING 1076
SWIDTH 600 0
DWIDTH 11 0
BBX 10 13 0 -3
BITMAP
3FC0
3FC0
1980
1980
1980
3180
3180
7180
FFC0
FFC0
C0C0
C0C0
C0C0
ENDCHAR
STARTCHAR uni0435
ENCODING 1077
SWIDTH 600 0
DWIDTH 11 0
BBX 9 10 1 0
BITMAP
3E00
7F00
E380
C180
FF80
FF80
C000
E000
7F80
3F80
ENDCHAR
STARTCHAR afii10072
ENCODING 1078
SWIDTH 600 0
DWIDTH 11 0
BBX 11 10 0 0
BITMAP
4EC0
6EC0
3580
3580
1F00
3F00
3580
65C0
E4E0
C4E0
ENDCHAR
STARTCHAR uni0437
ENCODING 1079
SWIDTH 600 0
DWIDTH 11 0
BBX 9 10 1 0
BITMAP
7E00
7F00
4700
0700
3C00
3F00
0380
0380
FF00
FE00
ENDCHAR
STARTCHAR _56
ENCODING 1080
SWIDTH 600 0
DWIDTH 11 0
BBX 9 10 1 0
BITMAP
E380
E780
6700
6F00
6B00
6B00
7300
7300
F780
E780
ENDCHAR
STARTCHAR uni0439
ENCODING 1081
SWIDTH 600 0
DWIDTH 11 0
BBX 9 14 1 0
BITMAP
6600
3E00
0000
0000
E380
E780
6700
6F00
6B00
6B00
7300
7300
F780
E780
ENDCHAR
STARTCHAR uni043A
ENCODING 1082
SWIDTH 600 0
DWIDTH 11 0
BBX 9 10 1 0
BITMAP
F380
F780
6600
6C00
7800
7C00
6E00
6700
F780
F780
ENDCHAR
STARTCHAR uni043B
ENCODING 1083
SWIDTH 600 0
DWIDTH 11 0
BBX 10 10 0 0
BITMAP
7FC0
7FC0
3980
3980
3980
3980
3180
3180
F3C0
C3C0
ENDCHAR
STARTCHAR uni043C
ENCODING 1084
SWIDTH 600 0
DWIDTH 11 0
BBX 10 10 0 0
BITMAP
F1C0
F1C0
71C0
7BC0
7AC0
7AC0
6EC0
6CC0
F1C0
F1C0
ENDCHAR
STARTCHAR uni043D
ENCODING 1085
SWIDTH 600 0
DWIDTH 11 0
BBX 9 10 1 0
BITMAP
F780
F780
6300
6300
7F00
7F00
6300
6300
F780
F780
ENDCHAR
STARTCHAR uni043E
ENCODING 1086
SWIDTH 600 0
DWIDTH 11 0
BBX 9 10 1 0
BITMAP
3E00
7F00
E380
C380
C180
C180
C380
E380
7F00
3E00
ENDCHAR
STARTCHAR uni043F
ENCODING 1087
SWIDTH 600 0
DWIDTH 11 0
BBX 9 10 1 0
BITMAP
FF80
FF80
6300
6300
6300
6300
6300
6300
F780
F780
ENDCHAR
STARTCHAR uni0440
ENCODING 1088
SWIDTH 600 0
DWIDTH 11 0
BBX 10 14 0 -4
BITMAP
F780
FF80
71C0
70C0
70C0
70C0
71C0
71C0
7F80
7F00
7000
7000
F800
F800
ENDCHAR
STARTCHAR uni0441
ENCODING 1089
SWIDTH 600 0
DWIDTH 11 0
BBX 9 10 1 0
BITMAP
1F80
7F80
E080
C080
C000
C000
E000
E000
7F80
3F80
ENDCHAR
STARTCHAR uni0442
ENCODING 1090
SWIDTH 600 0
DWIDTH 11 0
BBX 9 10 1 0
BITMAP
FF80
FF80
9C80
1C00
1C00
1C00
1C00
1C00
7F00
7F00
ENDCHAR
STARTCHAR afii10085
ENCODING 1091
SWIDTH 600 0
DWIDTH 11 0
BBX 11 14 0 -4
BITMAP
F9E0
F9E0
7080
3980
3980
1B00
1F00
1E00
0E00
0C00
0C00
4C00
7800
7000
ENDCHAR
STARTCHAR afii10086
ENCODING 1092
SWIDTH 600 0
DWIDTH 11 0
BBX 9 18 1 -4
BITMAP
1C00
1C00
1800
1800
3E00
7F00
D980
D980
D980
D980
D980
D980
7F00
3E00
1800
1800
1C00
1C00
ENDCHAR
STARTCHAR uni0445
ENCODING 1093
SWIDTH 600 0
DWIDTH 11 0
BBX 11 10 0 0
BITMAP
79C0
79C0
3980
1F00
0E00
0E00
1F00
3380
F7E0
F7E0
ENDCHAR
STARTCHAR uni0446
ENCODING 1094
SWIDTH 600 0
DWIDTH 11 0
BBX 10 13 0 -3
BITMAP
FBC0
FBC0
71C0
71C0
71C0
71C0
71C0
71C0
FFC0
FFC0
0040
0040
0040
ENDCHAR
STARTCHAR uni0447
ENCODING 1095
SWIDTH 602 0
DWIDTH 11 0
BBX 10 10 0 0
BITMAP
F3C0
F3C0
7180
7180
7180
7F80
0980
0180
03C0
03C0
ENDCHAR
STARTCHAR uni0448
ENCODING 1096
SWIDTH 600 0
DWIDTH 11 0
BBX 9 10 1 0
BITMAP
DD80
DD80
D980
D980
D980
D980
D980
D980
FF80
FF80
ENDCHAR
STARTCHAR uni0449
ENCODING 1097
SWIDTH 600 0
DWIDTH 11 0
BBX 9 13 1 -3
BITMAP
DD80
DD80
D980
D980
D980
D980
D980
D980
FF80
FF80
0180
0180
0180
ENDCHAR
STARTCHAR afii10092
ENCODING 1098
SWIDTH 600 0
DWIDTH 11 0
BBX 10 10 0 0
BITMAP
F800
F800
1800
1E00
1F80
19C0
18C0
18C0
3FC0
3F00
ENDCHAR
STARTCHAR uni044B
ENCODING 1099
SWIDTH 600 0
DWIDTH 11 0
BBX 10 10 0 0
BITMAP
E1C0
E1C0
60C0
70C0
7CC0
66C0
66C0
66C0
FDC0
F9C0
ENDCHAR
STARTCHAR uni044C
ENCODING 1100
SWIDTH 600 0
DWIDTH 11 0
BBX 9 10 1 0
BITMAP
F000
F000
6000
7800
7F00
6380
6380
6380
FF80
FE00
ENDCHAR
STARTCHAR uni044D
ENCODING 1101
SWIDTH 600 0
DWIDTH 11 0
BBX 9 10 1 0
BITMAP
FE00
FF00
C380
0380
3F80
3F80
0380
0380
FF00
FC00
ENDCHAR
STARTCHAR uni044E
ENCODING 1102
SWIDTH 600 0
DWIDTH 11 0
BBX 10 10 0 0
BITMAP
E380
E7C0
6CC0
6CC0
7CC0
7CC0
6CC0
6CC0
E7C0
E380
ENDCHAR
STARTCHAR afii10097
ENCODING 1103
SWIDTH 600 0
DWIDTH 11 0
BBX 10 10 0 0
BITMAP
1FC0
3FC0
7180
7180
3F80
1F80
1980
3980
F3C0
F3C0
ENDCHAR
STARTCHAR uni0450
ENCODING 1104
SWIDTH 600 0
DWIDTH 11 0
BBX 9 15 1 0
BITMAP
3800
1800
0C00
0000
0000
3E00
7F00
E380
C180
FF80
FF80
C000
E000
7F80
3F80
ENDCHAR
STARTCHAR uni0451
ENCODING 1105
SWIDTH 600 0
DWIDTH 11 0
BBX 9 13 1 0
BITMAP
3300
3300
0000
3E00
7F00
E380
C180
FF80
FF80
C000
E000
7F80
3F80
ENDCHAR
STARTCHAR afii10099
ENCODING 1106
SWIDTH 600 0
DWIDTH 11 0
BBX 9 18 1 -4
BITMAP
E000
E000
6000
FC00
FC00
6000
6200
6F80
7380
6180
6180
6180
F180
F180
0180
0180
0F80
0F00
ENDCHAR
STARTCHAR uni0453
ENCODING 1107
SWIDTH 600 0
DWIDTH 11 0
BBX 10 15 0 0
BITMAP
0700
0E00
0C00
1800
0000
FFC0
FFC0
30C0
3000
3000
3000
3000
3000
FC00
FC00
ENDCHAR
STARTCHAR uni0454
ENCODING 1108
SWIDTH 600 0
DWIDTH 11 0
BBX 9 10 1 0
BITMAP
3F80
7F80
E180
C000
FC00
FC00
C000
E000
7F80
3F80
ENDCHAR
STARTCHAR uni0455
ENCODING 1109
SWIDTH 600 0
DWIDTH 11 0
BBX 9 10 1 0
BITMAP
3F00
7F00
E300
7000
7E00
1F00
4380
4380
7F00
7E00
ENDCHAR
STARTCHAR uni0456
ENCODING 1110
SWIDTH 600 0
DWIDTH 11 0
BBX 9 14 1 0
BITMAP
1C00
1C00
1C00
0000
FC00
FC00
1C00
1C00
1C00
1C00
1C00
1C00
FF80
FF80
ENDCHAR
STARTCHAR uni0457
ENCODING 1111
SWIDTH 600 0
DWIDTH 11 0
BBX 9 13 1 0
BITMAP
3300
3300
0000
FC00
FC00
1C00
1C00
1C00
1C00
1C00
1C00
FF80
FF80
ENDCHAR
STARTCHAR uni0458
ENCODING 1112
SWIDTH 600 0
DWIDTH 11 0
BBX 7 18 1 -4
BITMAP
06
06
06
00
7E
7E
06
06
06
06
06
06
06
06
86
86
FE
F8
ENDCHAR
STARTCHAR uni0459
ENCODING 1113
SWIDTH 600 0
DWIDTH 11 0
BBX 11 10 0 0
BITMAP
7C00
7C00
6400
6700
67C0
64C0
6460
64C0
E7C0
C780
ENDCHAR
STARTCHAR uni045A
ENCODING 1114
SWIDTH 600 0
DWIDTH 11 0
BBX 10 10 0 0
BITMAP
EE00
EE00
6600
6600
7F80
7FC0
66C0
66C0
E7C0
E780
ENDCHAR
STARTCHAR afii10108
ENCODING 1115
SWIDTH 600 0
DWIDTH 11 0
BBX 10 14 1 0
BITMAP
E000
E000
6000
FC00
FC00
6000
6F00
7F00
7380
6380
6380
6380
F7C0
F7C0
ENDCHAR
STARTCHAR uni045C
ENCODING 1116
SWIDTH 600 0
DWIDTH 11 0
BBX 10 15 1 0
BITMAP
0300
0600
0C00
0800
0000
F180
F380
6600
6C00
7800
7C00
6600
6700
F3C0
F3C0
ENDCHAR
STARTCHAR uni045D
ENCODING 1117
SWIDTH 600 0
DWIDTH 11 0
BBX 9 15 1 0
BITMAP
7000
3800
1800
0C00
0000
E380
E780
6700
6F00
6B00
6B00
7300
7300
F780
E780
ENDCHAR
STARTCHAR uni045E
ENCODING 1118
SWIDTH 600 0
DWIDTH 11 0
BBX 11 18 0 -4
BITMAP
1980
1980
0F00
0000
F9E0
F9E0
7080
3980
3980
1B00
1F00
1E00
0E00
0C00
0C00
4C00
7800
7000
ENDCHAR
STARTCHAR uni045F
ENCODING 1119
SWIDTH 600 0
DWIDTH 11 0
BBX 9 13 1 -3
BITMAP
F780
F780
6300
6300
6300
6300
6300
6300
FF80
FF80
0800
0800
0800
ENDCHAR
STARTCHAR uni0490
ENCODING 1168
SWIDTH 600 0
DWIDTH 11 0
BBX 10 15 0 0
BITMAP
00C0
00C0
FFC0
FFC0
3000
3000
3000
3000
3000
3000
3000
3000
3000
FC00
FC00
ENDCHAR
STARTCHAR uni0491
ENCODING 1169
SWIDTH 600 0
DWIDTH 11 0
BBX 9 12 1 0
BITMAP
0080
0080
FF80
FF80
7000
7000
7000
7000
7000
7000
FC00
FC00
ENDCHAR
STARTCHAR Wgrave
ENCODING 7808
SWIDTH 600 0
DWIDTH 11 0
BBX 11 18 0 0
BITMAP
3800
1C00
0C00
0600
0000
E0E0
E0E0
6640
6EC0
6EC0
6EC0
6AC0
6A80
6B80
2B80
3380
3380
3180
ENDCHAR
STARTCHAR wgrave
ENCODING 7809
SWIDTH 600 0
DWIDTH 11 0
BBX 11 14 0 0
BITMAP
3800
0C00
0200
0000
F0E0
F0E0
6EC0
6EC0
6EC0
6B80
7B80
3B80
3380
3180
ENDCHAR
STARTCHAR Wacute
ENCODING 7810
SWIDTH 600 0
DWIDTH 11 0
BBX 11 18 0 0
BITMAP
0300
0700
0600
0C00
0000
E0E0
E0E0
6640
6EC0
6EC0
6EC0
6AC0
6A80
6B80
2B80
3380
3380
3180
ENDCHAR
STARTCHAR wacute
ENCODING 7811
SWIDTH 600 0
DWIDTH 11 0
BBX 11 14 0 0
BITMAP
0380
0600
0000
0000
F0E0
F0E0
6EC0
6EC0
6EC0
6B80
7B80
3B80
3380
3180
ENDCHAR
STARTCHAR Wdieresis
ENCODING 7812
SWIDTH 600 0
DWIDTH 11 0
BBX 11 16 0 0
BITMAP
1980
1980
0000
E0E0
E0E0
6640
6EC0
6EC0
6EC0
6AC0
6A80
6B80
2B80
3380
3380
3180
ENDCHAR
STARTCHAR wdieresis
ENCODING 7813
SWIDTH 600 0
DWIDTH 11 0
BBX 11 13 0 0
BITMAP
1980
1980
0000
F0E0
F0E0
6EC0
6EC0
6EC0
6B80
7B80
3B80
3380
3180
ENDCHAR
STARTCHAR Ygrave
ENCODING 7922
SWIDTH 600 0
DWIDTH 11 0
BBX 11 18 0 0
BITMAP
1800
0C00
0C00
0600
0000
F9E0
F9E0
7880
3980
1D00
1F00
0E00
0E00
0E00
0E00
0E00
3F80
3F80
ENDCHAR
STARTCHAR ygrave
ENCODING 7923
SWIDTH 600 0
DWIDTH 11 0
BBX 11 18 0 -4
BITMAP
3800
0C00
0200
0000
F9E0
F9E0
7080
3980
3980
1F00
1F00
1E00
0E00
0C00
0C00
1C00
7E00
7E00
ENDCHAR
STARTCHAR endash
ENCODING 8211
SWIDTH 600 0
DWIDTH 11 0
BBX 9 2 1 5
BITMAP
FF80
FF80
ENDCHAR
STARTCHAR emdash
ENCODING 8212
SWIDTH 600 0
DWIDTH 11 0
BBX 11 2 0 5
BITMAP
FFE0
FFE0
ENDCHAR
STARTCHAR afii00208
ENCODING 8213
SWIDTH 600 0
DWIDTH 11 0
BBX 11 2 0 5
BITMAP
FFE0
FFE0
ENDCHAR
STARTCHAR underscoredbl
ENCODING 8215
SWIDTH 600 0
DWIDTH 11 0
BBX 11 4 0 -4
BITMAP
FFE0
FFE0
FFE0
FFE0
ENDCHAR
STARTCHAR quoteleft
ENCODING 8216
SWIDTH 600 0
DWIDTH 11 0
BBX 3 6 4 8
BITMAP
60
E0
C0
E0
E0
E0
ENDCHAR
STARTCHAR quoteright
ENCODING 8217
SWIDTH 600 0
DWIDTH 11 0
BBX 3 6 4 8
BITMAP
E0
E0
E0
60
C0
80
ENDCHAR
STARTCHAR quotesinglbase
ENCODING 8218
SWIDTH 600 0
DWIDTH 11 0
BBX 3 6 4 -3
BITMAP
E0
E0
E0
60
E0
C0
ENDCHAR
STARTCHAR quotereversed
ENCODING 8219
SWIDTH 600 0
DWIDTH 11 0
BBX 3 6 4 8
BITMAP
E0
E0
E0
C0
E0
60
ENDCHAR
STARTCHAR quotedblleft
ENCODING 8220
SWIDTH 600 0
DWIDTH 11 0
BBX 8 6 1 8
BITMAP
63
E3
C6
E7
E7
E7
ENDCHAR
STARTCHAR quotedblright
ENCODING 8221
SWIDTH 600 0
DWIDTH 11 0
BBX 9 6 1 8
BITMAP
E380
E380
E380
2100
E300
8400
ENDCHAR
STARTCHAR quotedblbase
ENCODING 8222
SWIDTH 600 0
DWIDTH 11 0
BBX 9 6 1 -3
BITMAP
E380
E380
E380
2180
E300
E300
ENDCHAR
STARTCHAR dagger
ENCODING 8224
SWIDTH 600 0
DWIDTH 11 0
BBX 8 16 1 -3
BITMAP
1C
1C
1C
1C
FF
FF
18
1C
1C
1C
1C
1C
1C
1C
1C
1C
ENDCHAR
STARTCHAR daggerdbl
ENCODING 8225
SWIDTH 600 0
DWIDTH 11 0
BBX 8 16 1 -3
BITMAP
1C
1C
1C
1C
FF
FF
1C
1C
1C
1C
FF
FF
1C
1C
1C
1C
ENDCHAR
STARTCHAR bullet
ENCODING 8226
SWIDTH 600 0
DWIDTH 11 0
BBX 7 7 2 3
BITMAP
38
7C
FE
FE
FE
7C
38
ENDCHAR
STARTCHAR ellipsis
ENCODING 8230
SWIDTH 600 0
DWIDTH 11 0
BBX 9 2 1 0
BITMAP
D980
D980
ENDCHAR
STARTCHAR perthousand
ENCODING 8240
SWIDTH 600 0
DWIDTH 11 0
BBX 11 13 0 0
BITMAP
6300
F200
9400
9400
FC00
6800
0EC0
1D40
1960
2960
2960
4FC0
46C0
ENDCHAR
STARTCHAR minute
ENCODING 8242
SWIDTH 600 0
DWIDTH 11 0
BBX 5 5 3 9
BITMAP
38
30
60
60
C0
ENDCHAR
STARTCHAR second
ENCODING 8243
SWIDTH 600 0
DWIDTH 11 0
BBX 9 5 1 9
BITMAP
3B80
3300
6600
6600
CC00
ENDCHAR
STARTCHAR guilsinglleft
ENCODING 8249
SWIDTH 600 0
DWIDTH 11 0
BBX 6 8 2 1
BITMAP
04
0C
38
70
F0
38
1C
04
ENDCHAR
STARTCHAR guilsinglright
ENCODING 8250
SWIDTH 600 0
DWIDTH 11 0
BBX 5 8 3 1
BITMAP
80
C0
60
38
38
70
C0
80
ENDCHAR
STARTCHAR exclamdbl
ENCODING 8252
SWIDTH 600 0
DWIDTH 11 0
BBX 8 13 1 0
BITMAP
E3
E3
E3
E3
63
63
63
63
63
00
00
E3
E3
ENDCHAR
STARTCHAR uni203E
ENCODING 8254
SWIDTH 600 0
DWIDTH 11 0
BBX 11 2 0 13
BITMAP
FFE0
FFE0
ENDCHAR
STARTCHAR fraction
ENCODING 8260
SWIDTH 600 0
DWIDTH 11 0
BBX 9 13 1 0
BITMAP
0180
0100
0200
0200
0400
0C00
0800
1000
1000
2000
6000
4000
8000
ENDCHAR
STARTCHAR uni207f
ENCODING 8319
SWIDTH 600 0
DWIDTH 11 0
BBX 7 7 2 6
BITMAP
DC
FE
C6
C6
C6
C6
C6
ENDCHAR
STARTCHAR franc
ENCODING 8355
SWIDTH 600 0
DWIDTH 11 0
BBX 10 13 1 0
BITMAP
FF00
FF00
C000
C000
C000
FC40
FDC0
CE00
CC00
CC00
CC00
CC00
CC00
ENDCHAR
STARTCHAR lira
ENCODING 8356
SWIDTH 600 0
DWIDTH 11 0
BBX 7 13 2 0
BITMAP
1E
3E
70
FC
FC
70
FC
FC
70
70
60
FE
FE
ENDCHAR
STARTCHAR peseta
ENCODING 8359
SWIDTH 600 0
DWIDTH 11 0
BBX 10 13 0 0
BITMAP
FC00
FE00
6700
6700
6600
7C00
6300
6FC0
6FC0
6300
6300
7300
71C0
ENDCHAR
STARTCHAR Euro
ENCODING 8364
SWIDTH 600 0
DWIDTH 11 0
BBX 10 13 0 0
BITMAP
07C0
1FC0
3800
7FC0
FF80
7000
7000
7F00
FF00
3800
3800
1FC0
07C0
ENDCHAR
STARTCHAR uni2105
ENCODING 8453
SWIDTH 600 0
DWIDTH 11 0
BBX 10 14 0 0
BITMAP
1800
3840
6080
6100
E100
7A00
0400
0400
09C0
12C0
16C0
26C0
66C0
C780
ENDCHAR
STARTCHAR afii61289
ENCODING 8467
SWIDTH 600 0
DWIDTH 11 0
BBX 11 15 0 0
BITMAP
0080
03C0
06E0
0CC0
0CC0
1CC0
1D80
1F00
1E00
3C00
F880
3980
3900
3B00
1E00
ENDCHAR
STARTCHAR afii61352
ENCODING 8470
SWIDTH 600 0
DWIDTH 11 0
BBX 11 13 0 0
BITMAP
CC00
CC00
EC00
ED80
EF40
EF40
FF60
DF60
DF40
DDC0
DC00
CC00
CFC0
ENDCHAR
STARTCHAR trademark
ENCODING 8482
SWIDTH 600 0
DWIDTH 11 0
BBX 10 6 0 7
BITMAP
F6C0
26C0
26C0
2540
2540
7540
ENDCHAR
STARTCHAR Omega
ENCODING 8486
SWIDTH 600 0
DWIDTH 11 0
BBX 10 14 0 0
BITMAP
0E00
3F80
71C0
71C0
60C0
E0C0
E0C0
E0C0
60C0
61C0
7180
3180
FBC0
FBC0
ENDCHAR
STARTCHAR estimated
ENCODING 8494
SWIDTH 600 0
DWIDTH 11 0
BBX 11 8 0 0
BITMAP
3F80
4040
C040
C060
FF80
C000
4040
3F80
ENDCHAR
STARTCHAR oneeighth
ENCODING 8539
SWIDTH 600 0
DWIDTH 11 0
BBX 10 13 0 0
BITMAP
6100
E300
2200
2600
2400
2C00
0BC0
1EC0
16C0
3380
26C0
67C0
47C0
ENDCHAR
STARTCHAR threeeighths
ENCODING 8540
SWIDTH 600 0
DWIDTH 11 0
BBX 10 13 0 0
BITMAP
F180
F900
7200
3A00
1C00
F400
6BC0
0EC0
16C0
1380
26C0
27C0
47C0
ENDCHAR
STARTCHAR fiveeighths
ENCODING 8541
SWIDTH 600 0
DWIDTH 11 0
BBX 10 13 0 0
BITMAP
F180
F100
F200
1A00
F400
F400
0BC0
0EC0
16C0
1380
26C0
27C0
47C0
ENDCHAR
STARTCHAR seveneighths
ENCODING 8542
SWIDTH 600 0
DWIDTH 11 0
BBX 10 13 0 0
BITMAP
F900
FB00
1200
3600
6400
6800
0BC0
16C0
16C0
2380
26C0
47C0
C7C0
ENDCHAR
STARTCHAR arrowleft
ENCODING 8592
SWIDTH 600 0
DWIDTH 11 0
BBX 9 6 1 3
BITMAP
2000
2000
7F80
FF80
6000
2000
ENDCHAR
STARTCHAR arrowup
ENCODING 8593
SWIDTH 600 0
DWIDTH 11 0
BBX 5 16 3 -3
BITMAP
20
70
B8
20
20
20
20
20
20
20
20
20
20
20
20
20
ENDCHAR
STARTCHAR arrowright
ENCODING 8594
SWIDTH 600 0
DWIDTH 11 0
BBX 9 6 1 3
BITMAP
0600
0200
FF00
FF80
0200
0600
ENDCHAR
STARTCHAR arrowdown
ENCODING 8595
SWIDTH 600 0
DWIDTH 11 0
BBX 5 16 3 -3
BITMAP
20
20
20
20
20
20
20
20
20
20
20
20
A8
70
20
20
ENDCHAR
STARTCHAR arrowboth
ENCODING 8596
SWIDTH 600 0
DWIDTH 11 0
BBX 9 6 1 3
BITMAP
2600
2200
FF00
FF80
6200
2600
ENDCHAR
STARTCHAR arrowupdn
ENCODING 8597
SWIDTH 600 0
DWIDTH 11 0
BBX 5 15 3 -2
BITMAP
20
70
B8
20
20
20
20
20
20
20
20
A8
B8
70
20
ENDCHAR
STARTCHAR arrowupdnbse
ENCODING 8616
SWIDTH 600 0
DWIDTH 11 0
BBX 5 18 3 -4
BITMAP
20
70
B8
20
20
20
20
20
20
20
20
A8
F8
70
20
00
F8
F8
ENDCHAR
STARTCHAR partialdiff
ENCODING 8706
SWIDTH 600 0
DWIDTH 11 0
BBX 9 14 1 0
BITMAP
3E00
4700
8300
0100
0100
1F80
3900
7100
6100
E300
E200
E600
FC00
7800
ENDCHAR
STARTCHAR Delta
ENCODING 8710
SWIDTH 600 0
DWIDTH 11 0
BBX 11 13 0 0
BITMAP
0E00
1E00
1F00
1700
3300
3380
2380
6180
61C0
41C0
C0C0
FFE0
FFE0
ENDCHAR
STARTCHAR product
ENCODING 8719
SWIDTH 600 0
DWIDTH 11 0
BBX 10 16 0 -3
BITMAP
FFC0
71C0
71C0
71C0
71C0
71C0
71C0
71C0
71C0
71C0
71C0
71C0
71C0
71C0
F3C0
F3C0
ENDCHAR
STARTCHAR summation
ENCODING 8721
SWIDTH 600 0
DWIDTH 11 0
BBX 10 16 0 -3
BITMAP
7FC0
70C0
38C0
3800
1C00
0E00
0F00
0600
0E00
0C00
1800
3000
3040
6040
FFC0
FFC0
ENDCHAR
STARTCHAR minus
ENCODING 8722
SWIDTH 600 0
DWIDTH 11 0
BBX 9 1 1 5
BITMAP
FF80
ENDCHAR
STARTCHAR fraction.001
ENCODING 8725
SWIDTH 600 0
DWIDTH 11 0
BBX 9 14 1 0
BITMAP
0080
0100
0100
0200
0600
0400
0800
0800
1000
1000
2000
6000
4000
C000
ENDCHAR
STARTCHAR uni2219
ENCODING 8729
SWIDTH 602 0
DWIDTH 11 0
BBX 7 7 2 2
BITMAP
7C
FE
FE
FE
FE
7C
30
ENDCHAR
STARTCHAR radical
ENCODING 8730
SWIDTH 600 0
DWIDTH 11 0
BBX 11 18 0 -3
BITMAP
0060
0040
0040
00C0
00C0
0080
0080
0180
0180
1100
F100
F300
3B00
1A00
1E00
0E00
0C00
0C00
ENDCHAR
STARTCHAR infinity
ENCODING 8734
SWIDTH 600 0
DWIDTH 11 0
BBX 10 7 0 1
BITMAP
7BC0
5AC0
CE40
C440
4E40
7BC0
7180
ENDCHAR
STARTCHAR orthogonal
ENCODING 8735
SWIDTH 600 0
DWIDTH 11 0
BBX 9 10 1 0
BITMAP
C000
C000
C000
C000
C000
C000
C000
C000
FF80
FF80
ENDCHAR
STARTCHAR intersection
ENCODING 8745
SWIDTH 600 0
DWIDTH 11 0
BBX 9 13 1 0
BITMAP
3E00
7700
C180
C180
8180
8180
8180
8180
8180
8180
8180
8180
8180
ENDCHAR
STARTCHAR integral
ENCODING 8747
SWIDTH 600 0
DWIDTH 11 0
BBX 8 20 1 -3
BITMAP
0E
1B
1A
18
18
18
18
18
18
18
18
18
18
18
18
18
18
D8
F0
60
ENDCHAR
STARTCHAR approxequal
ENCODING 8776
SWIDTH 600 0
DWIDTH 11 0
BBX 9 7 1 2
BITMAP
F980
DF80
8700
0000
7180
FF80
8F00
ENDCHAR
STARTCHAR notequal
ENCODING 8800
SWIDTH 600 0
DWIDTH 11 0
BBX 9 9 1 1
BITMAP
0700
FF80
FF80
0C00
1800
FF80
FF80
3000
6000
ENDCHAR
STARTCHAR equivalence
ENCODING 8801
SWIDTH 602 0
DWIDTH 11 0
BBX 9 8 1 2
BITMAP
FF80
FF80
0000
0000
FF80
0000
0000
FF80
ENDCHAR
STARTCHAR lessequal
ENCODING 8804
SWIDTH 600 0
DWIDTH 11 0
BBX 9 12 1 0
BITMAP
0080
0380
0F00
3C00
F000
3C00
0F00
0380
0080
0000
FF80
FF80
ENDCHAR
STARTCHAR greaterequal
ENCODING 8805
SWIDTH 600 0
DWIDTH 11 0
BBX 9 12 1 0
BITMAP
8000
E000
7800
1E00
0780
1E00
7800
E000
8000
0000
FF80
FF80
ENDCHAR
STARTCHAR house
ENCODING 8962
SWIDTH 600 0
DWIDTH 11 0
BBX 9 11 1 0
BITMAP
0800
1C00
3E00
7700
E300
C180
C180
C180
C180
FF80
FF80
ENDCHAR
STARTCHAR revlogicalnot
ENCODING 8976
SWIDTH 602 0
DWIDTH 11 0
BBX 9 5 1 1
BITMAP
FF80
8000
8000
8000
8000
ENDCHAR
STARTCHAR integraltp
ENCODING 8992
SWIDTH 600 0
DWIDTH 11 0
BBX 5 19 4 -4
BITMAP
10
78
58
40
C0
C0
C0
E0
E0
E0
E0
E0
E0
E0
E0
E0
E0
E0
E0
ENDCHAR
STARTCHAR integralbt
ENCODING 8993
SWIDTH 600 0
DWIDTH 11 0
BBX 6 19 1 -4
BITMAP
1C
1C
1C
1C
1C
1C
1C
1C
1C
1C
1C
1C
1C
18
18
08
68
F8
70
ENDCHAR
STARTCHAR SF100000
ENCODING 9472
SWIDTH 600 0
DWIDTH 11 0
BBX 11 1 0 5
BITMAP
FFE0
ENDCHAR
STARTCHAR SF110000
ENCODING 9474
SWIDTH 600 0
DWIDTH 11 0
BBX 1 19 5 -4
BITMAP
80
80
80
80
80
80
80
80
80
80
80
80
80
80
80
80
80
80
80
ENDCHAR
STARTCHAR SF010000
ENCODING 9484
SWIDTH 600 0
DWIDTH 11 0
BBX 6 10 5 -4
BITMAP
FC
80
80
80
80
80
80
80
80
80
ENDCHAR
STARTCHAR SF030000
ENCODING 9488
SWIDTH 600 0
DWIDTH 11 0
BBX 6 10 0 -4
BITMAP
FC
04
04
04
04
04
04
04
04
04
ENDCHAR
STARTCHAR SF020000
ENCODING 9492
SWIDTH 600 0
DWIDTH 11 0
BBX 6 10 5 5
BITMAP
80
80
80
80
80
80
80
80
80
FC
ENDCHAR
STARTCHAR SF040000
ENCODING 9496
SWIDTH 600 0
DWIDTH 11 0
BBX 6 10 0 5
BITMAP
04
04
04
04
04
04
04
04
04
FC
ENDCHAR
STARTCHAR SF080000
ENCODING 9500
SWIDTH 600 0
DWIDTH 11 0
BBX 6 19 5 -4
BITMAP
80
80
80
80
80
80
80
80
80
FC
80
80
80
80
80
80
80
80
80
ENDCHAR
STARTCHAR SF090000
ENCODING 9508
SWIDTH 600 0
DWIDTH 11 0
BBX 6 19 0 -4
BITMAP
04
04
04
04
04
04
04
04
04
FC
04
04
04
04
04
04
04
04
04
ENDCHAR
STARTCHAR SF060000
ENCODING 9516
SWIDTH 600 0
DWIDTH 11 0
BBX 11 10 0 -4
BITMAP
FFE0
0400
0400
0400
0400
0400
0400
0400
0400
0400
ENDCHAR
STARTCHAR SF070000
ENCODING 9524
SWIDTH 600 0
DWIDTH 11 0
BBX 11 10 0 5
BITMAP
0400
0400
0400
0400
0400
0400
0400
0400
0400
FFE0
ENDCHAR
STARTCHAR SF050000
ENCODING 9532
SWIDTH 600 0
DWIDTH 11 0
BBX 11 19 0 -4
BITMAP
0400
0400
0400
0400
0400
0400
0400
0400
0400
FFE0
0400
0400
0400
0400
0400
0400
0400
0400
0400
ENDCHAR
STARTCHAR SF430000
ENCODING 9552
SWIDTH 600 0
DWIDTH 11 0
BBX 11 4 0 3
BITMAP
FFE0
0000
FFE0
FFE0
ENDCHAR
STARTCHAR SF240000
ENCODING 9553
SWIDTH 600 0
DWIDTH 11 0
BBX 4 19 3 -4
BITMAP
D0
D0
D0
D0
D0
D0
D0
D0
D0
D0
D0
D0
D0
D0
D0
D0
D0
D0
D0
ENDCHAR
STARTCHAR SF510000
ENCODING 9554
SWIDTH 600 0
DWIDTH 11 0
BBX 6 11 5 -4
BITMAP
FC
80
FC
FC
80
80
80
80
80
80
80
ENDCHAR
STARTCHAR SF520000
ENCODING 9555
SWIDTH 600 0
DWIDTH 11 0
BBX 8 10 3 -4
BITMAP
FF
D0
D0
D0
D0
D0
D0
D0
D0
D0
ENDCHAR
STARTCHAR SF390000
ENCODING 9556
SWIDTH 600 0
DWIDTH 11 0
BBX 8 11 3 -4
BITMAP
FF
C0
DF
DF
D0
D0
D0
D0
D0
D0
D0
ENDCHAR
STARTCHAR SF220000
ENCODING 9557
SWIDTH 600 0
DWIDTH 11 0
BBX 6 11 0 -4
BITMAP
FC
04
FC
FC
04
04
04
04
04
04
04
ENDCHAR
STARTCHAR SF210000
ENCODING 9558
SWIDTH 600 0
DWIDTH 11 0
BBX 7 10 0 -4
BITMAP
FE
1A
1A
1A
1A
1A
1A
1A
1A
1A
ENDCHAR
STARTCHAR SF250000
ENCODING 9559
SWIDTH 600 0
DWIDTH 11 0
BBX 7 11 0 -4
BITMAP
FE
02
FA
FA
1A
1A
1A
1A
1A
1A
1A
ENDCHAR
STARTCHAR SF500000
ENCODING 9560
SWIDTH 600 0
DWIDTH 11 0
BBX 6 12 5 3
BITMAP
80
80
80
80
80
80
80
80
FC
80
FC
FC
ENDCHAR
STARTCHAR SF490000
ENCODING 9561
SWIDTH 600 0
DWIDTH 11 0
BBX 8 10 3 5
BITMAP
D0
D0
D0
D0
D0
D0
D0
D0
D0
FF
ENDCHAR
STARTCHAR SF380000
ENCODING 9562
SWIDTH 600 0
DWIDTH 11 0
BBX 8 12 3 3
BITMAP
D0
D0
D0
D0
D0
D0
D0
D0
DF
C0
FF
FF
ENDCHAR
STARTCHAR SF280000
ENCODING 9563
SWIDTH 600 0
DWIDTH 11 0
BBX 6 12 0 3
BITMAP
04
04
04
04
04
04
04
04
FC
04
FC
FC
ENDCHAR
STARTCHAR SF270000
ENCODING 9564
SWIDTH 600 0
DWIDTH 11 0
BBX 7 10 0 5
BITMAP
1A
1A
1A
1A
1A
1A
1A
1A
1A
FE
ENDCHAR
STARTCHAR SF260000
ENCODING 9565
SWIDTH 600 0
DWIDTH 11 0
BBX 7 12 0 3
BITMAP
1A
1A
1A
1A
1A
1A
1A
1A
FA
02
FE
FE
ENDCHAR
STARTCHAR SF360000
ENCODING 9566
SWIDTH 600 0
DWIDTH 11 0
BBX 6 19 5 -4
BITMAP
80
80
80
80
80
80
80
80
FC
80
FC
FC
80
80
80
80
80
80
80
ENDCHAR
STARTCHAR SF370000
ENCODING 9567
SWIDTH 600 0
DWIDTH 11 0
BBX 8 19 3 -4
BITMAP
D0
D0
D0
D0
D0
D0
D0
D0
D0
DF
D0
D0
D0
D0
D0
D0
D0
D0
D0
ENDCHAR
STARTCHAR SF420000
ENCODING 9568
SWIDTH 600 0
DWIDTH 11 0
BBX 8 19 3 -4
BITMAP
D0
D0
D0
D0
D0
D0
D0
D0
DF
C0
DF
DF
D0
D0
D0
D0
D0
D0
D0
ENDCHAR
STARTCHAR SF190000
ENCODING 9569
SWIDTH 600 0
DWIDTH 11 0
BBX 6 19 0 -4
BITMAP
04
04
04
04
04
04
04
04
FC
04
FC
FC
04
04
04
04
04
04
04
ENDCHAR
STARTCHAR SF200000
ENCODING 9570
SWIDTH 600 0
DWIDTH 11 0
BBX 7 19 0 -4
BITMAP
1A
1A
1A
1A
1A
1A
1A
1A
1A
FA
1A
1A
1A
1A
1A
1A
1A
1A
1A
ENDCHAR
STARTCHAR SF230000
ENCODING 9571
SWIDTH 600 0
DWIDTH 11 0
BBX 7 19 0 -4
BITMAP
1A
1A
1A
1A
1A
1A
1A
1A
FA
02
FA
FA
1A
1A
1A
1A
1A
1A
1A
ENDCHAR
STARTCHAR SF470000
ENCODING 9572
SWIDTH 600 0
DWIDTH 11 0
BBX 11 11 0 -4
BITMAP
FFE0
0000
FFE0
FFE0
0400
0400
0400
0400
0400
0400
0400
ENDCHAR
STARTCHAR SF480000
ENCODING 9573
SWIDTH 600 0
DWIDTH 11 0
BBX 11 10 0 -4
BITMAP
FFE0
1A00
1A00
1A00
1A00
1A00
1A00
1A00
1A00
1A00
ENDCHAR
STARTCHAR SF410000
ENCODING 9574
SWIDTH 600 0
DWIDTH 11 0
BBX 11 11 0 -4
BITMAP
FFE0
0000
FBE0
FBE0
1A00
1A00
1A00
1A00
1A00
1A00
1A00
ENDCHAR
STARTCHAR SF450000
ENCODING 9575
SWIDTH 600 0
DWIDTH 11 0
BBX 11 12 0 3
BITMAP
0400
0400
0400
0400
0400
0400
0400
0400
FFE0
0000
FFE0
FFE0
ENDCHAR
STARTCHAR SF460000
ENCODING 9576
SWIDTH 600 0
DWIDTH 11 0
BBX 11 10 0 5
BITMAP
1A00
1A00
1A00
1A00
1A00
1A00
1A00
1A00
1A00
FFE0
ENDCHAR
STARTCHAR SF400000
ENCODING 9577
SWIDTH 600 0
DWIDTH 11 0
BBX 11 12 0 3
BITMAP
1A00
1A00
1A00
1A00
1A00
1A00
1A00
1A00
FBE0
0000
FFE0
FFE0
ENDCHAR
STARTCHAR SF540000
ENCODING 9578
SWIDTH 600 0
DWIDTH 11 0
BBX 11 19 0 -4
BITMAP
0400
0400
0400
0400
0400
0400
0400
0400
FFE0
0400
FFE0
FFE0
0400
0400
0400
0400
0400
0400
0400
ENDCHAR
STARTCHAR SF530000
ENCODING 9579
SWIDTH 600 0
DWIDTH 11 0
BBX 11 19 0 -4
BITMAP
1A00
1A00
1A00
1A00
1A00
1A00
1A00
1A00
1A00
FFE0
1A00
1A00
1A00
1A00
1A00
1A00
1A00
1A00
1A00
ENDCHAR
STARTCHAR SF440000
ENCODING 9580
SWIDTH 600 0
DWIDTH 11 0
BBX 11 19 0 -4
BITMAP
1A00
1A00
1A00
1A00
1A00
1A00
1A00
1A00
FBE0
0000
FBE0
FBE0
1A00
1A00
1A00
1A00
1A00
1A00
1A00
ENDCHAR
STARTCHAR upblock
ENCODING 9600
SWIDTH 600 0
DWIDTH 11 0
BBX 11 10 0 5
BITMAP
FFE0
FFE0
FFE0
FFE0
FFE0
FFE0
FFE0
FFE0
FFE0
FFE0
ENDCHAR
STARTCHAR dnblock
ENCODING 9604
SWIDTH 600 0
DWIDTH 11 0
BBX 11 9 0 -4
BITMAP
FFE0
FFE0
FFE0
FFE0
FFE0
FFE0
FFE0
FFE0
FFE0
ENDCHAR
STARTCHAR block
ENCODING 9608
SWIDTH 600 0
DWIDTH 11 0
BBX 11 19 0 -4
BITMAP
FFE0
FFE0
FFE0
FFE0
FFE0
FFE0
FFE0
FFE0
FFE0
FFE0
FFE0
FFE0
FFE0
FFE0
FFE0
FFE0
FFE0
FFE0
FFE0
ENDCHAR
STARTCHAR lfblock
ENCODING 9612
SWIDTH 600 0
DWIDTH 11 0
BBX 5 19 0 -4
BITMAP
F8
F8
F8
F8
F8
F8
F8
F8
F8
F8
F8
F8
F8
F8
F8
F8
F8
F8
F8
ENDCHAR
STARTCHAR rtblock
ENCODING 9616
SWIDTH 600 0
DWIDTH 11 0
BBX 6 19 5 -4
BITMAP
FC
FC
FC
FC
FC
FC
FC
FC
FC
FC
FC
FC
FC
FC
FC
FC
FC
FC
FC
ENDCHAR
STARTCHAR ltshade
ENCODING 9617
SWIDTH 600 0
DWIDTH 11 0
BBX 11 17 0 -2
BITMAP
C980
C980
0000
0000
3660
3660
0000
0000
C980
C980
0000
0000
3660
0000
0000
C980
C980
ENDCHAR
STARTCHAR shade
ENCODING 9618
SWIDTH 600 0
DWIDTH 11 0
BBX 11 19 0 -4
BITMAP
3660
3660
C980
C980
3660
3660
C980
C980
3660
3660
C980
C980
3660
C980
C980
3660
3660
C980
C980
ENDCHAR
STARTCHAR dkshade
ENCODING 9619
SWIDTH 600 0
DWIDTH 11 0
BBX 11 19 0 -4
BITMAP
FFE0
FFE0
C980
C980
FFE0
FFE0
C980
C980
FFE0
FFE0
C980
C980
FFE0
C980
C980
FFE0
FFE0
C980
C980
ENDCHAR
STARTCHAR filledbox
ENCODING 9632
SWIDTH 600 0
DWIDTH 11 0
BBX 9 10 1 0
BITMAP
FF80
FF80
FF80
FF80
FF80
FF80
FF80
FF80
FF80
FF80
ENDCHAR
STARTCHAR H22073
ENCODING 9633
SWIDTH 600 0
DWIDTH 11 0
BBX 9 10 1 0
BITMAP
FF80
8080
8080
8080
8080
8080
8080
8080
8080
FF80
ENDCHAR
STARTCHAR H18543
ENCODING 9642
SWIDTH 600 0
DWIDTH 11 0
BBX 7 7 2 2
BITMAP
FE
FE
FE
FE
FE
FE
FE
ENDCHAR
STARTCHAR H18551
ENCODING 9643
SWIDTH 600 0
DWIDTH 11 0
BBX 7 7 2 2
BITMAP
FE
82
82
82
82
82
FE
ENDCHAR
STARTCHAR filledrect
ENCODING 9644
SWIDTH 600 0
DWIDTH 11 0
BBX 9 4 1 5
BITMAP
FF80
FF80
FF80
FF80
ENDCHAR
STARTCHAR triagup
ENCODING 9650
SWIDTH 600 0
DWIDTH 11 0
BBX 10 11 0 0
BITMAP
0400
0400
0C00
0E00
1E00
1F00
1F00
3F80
3F80
7FC0
FFC0
ENDCHAR
STARTCHAR triagrt
ENCODING 9658
SWIDTH 600 0
DWIDTH 11 0
BBX 9 11 1 0
BITMAP
8000
C000
F000
F800
FE00
FF80
FF00
FC00
F000
C000
8000
ENDCHAR
STARTCHAR triagdn
ENCODING 9660
SWIDTH 600 0
DWIDTH 11 0
BBX 10 11 0 0
BITMAP
FFC0
7FC0
7F80
3F80
3F00
1F00
1E00
0E00
0E00
0400
0400
ENDCHAR
STARTCHAR triaglf
ENCODING 9668
SWIDTH 600 0
DWIDTH 11 0
BBX 10 11 0 0
BITMAP
0040
00C0
03C0
0FC0
1FC0
FFC0
3FC0
0FC0
03C0
00C0
0040
ENDCHAR
STARTCHAR lozenge
ENCODING 9674
SWIDTH 600 0
DWIDTH 11 0
BBX 11 11 0 0
BITMAP
0400
0E00
1F00
3B80
7180
E0E0
60C0
3180
1B00
0E00
0400
ENDCHAR
STARTCHAR circle
ENCODING 9675
SWIDTH 600 0
DWIDTH 11 0
BBX 9 10 1 0
BITMAP
3C00
6300
C180
8080
8080
8080
8080
8180
4300
3E00
ENDCHAR
STARTCHAR H18533
ENCODING 9679
SWIDTH 600 0
DWIDTH 11 0
BBX 9 10 1 0
BITMAP
3C00
7F00
FF80
FF80
FF80
FF80
FF80
FF80
7F00
3E00
ENDCHAR
STARTCHAR invbullet
ENCODING 9688
SWIDTH 600 0
DWIDTH 11 0
BBX 11 19 0 -4
BITMAP
FFE0
FFE0
FFE0
FFE0
FFE0
F1E0
C0E0
C060
C060
C060
C060
C0E0
E1E0
FFE0
FFE0
FFE0
FFE0
FFE0
FFE0
ENDCHAR
STARTCHAR invcircle
ENCODING 9689
SWIDTH 600 0
DWIDTH 11 0
BBX 11 19 0 -4
BITMAP
FFE0
FFE0
FFE0
FFE0
FFE0
E1E0
CE60
9F20
BFA0
BFA0
BFA0
BFA0
BF20
DE60
E0E0
FFE0
FFE0
FFE0
FFE0
ENDCHAR
STARTCHAR openbullet
ENCODING 9702
SWIDTH 600 0
DWIDTH 11 0
BBX 8 8 1 2
BITMAP
1C
62
41
41
C1
41
62
3C
ENDCHAR
STARTCHAR smileface
ENCODING 9786
SWIDTH 600 0
DWIDTH 11 0
BBX 9 10 1 0
BITMAP
3C00
6300
8180
B680
8080
C180
A280
BC80
4100
3E00
ENDCHAR
STARTCHAR invsmileface
ENCODING 9787
SWIDTH 600 0
DWIDTH 11 0
BBX 9 10 1 0
BITMAP
3C00
7F00
FF80
C980
FF80
BF80
DD80
C380
7F00
3E00
ENDCHAR
STARTCHAR sun
ENCODING 9788
SWIDTH 600 0
DWIDTH 11 0
BBX 9 10 1 1
BITMAP
0800
D900
7F00
6300
C180
C380
6300
FF00
4900
0800
ENDCHAR
STARTCHAR female
ENCODING 9792
SWIDTH 600 0
DWIDTH 11 0
BBX 9 13 1 0
BITMAP
3E00
6300
C100
8180
8180
C180
4300
3E00
0800
0800
3E00
0800
0800
ENDCHAR
STARTCHAR male
ENCODING 9794
SWIDTH 600 0
DWIDTH 11 0
BBX 11 14 0 0
BITMAP
0080
07C0
05C0
0140
0360
1E00
7700
4100
C180
8080
C180
4100
7300
3E00
ENDCHAR
STARTCHAR spade
ENCODING 9824
SWIDTH 602 0
DWIDTH 11 0
BBX 11 13 0 0
BITMAP
0400
0E00
0E00
1F00
3F80
7FC0
7FC0
FFE0
7FC0
7580
0400
0C00
0E00
ENDCHAR
STARTCHAR club
ENCODING 9827
SWIDTH 600 0
DWIDTH 11 0
BBX 10 13 0 0
BITMAP
0E00
1F00
1F00
1F00
2F80
7FC0
FFC0
FFC0
77C0
0400
0400
0C00
0E00
ENDCHAR
STARTCHAR heart
ENCODING 9829
SWIDTH 600 0
DWIDTH 11 0
BBX 10 13 0 0
BITMAP
7BC0
7BC0
FFC0
FFC0
FFC0
7FC0
7FC0
7FC0
3F80
3F00
1F00
0E00
0400
ENDCHAR
STARTCHAR diamond
ENCODING 9830
SWIDTH 600 0
DWIDTH 11 0
BBX 10 13 0 0
BITMAP
0400
0E00
0E00
1F00
3F80
7FC0
FFC0
7F80
3F00
1F00
0E00
0C00
0400
ENDCHAR
STARTCHAR musicalnote
ENCODING 9834
SWIDTH 600 0
DWIDTH 11 0
BBX 9 13 1 0
BITMAP
0800
0C00
0E00
0F00
0B80
0980
0880
0900
0800
7800
F800
F800
F000
ENDCHAR
STARTCHAR musicalnotedbl
ENCODING 9835
SWIDTH 600 0
DWIDTH 11 0
BBX 10 17 0 -3
BITMAP
0040
00C0
03C0
0FC0
0E40
0840
0840
0840
0840
0840
0BC0
0BC0
1BC0
7B80
F800
F000
7000
ENDCHAR
STARTCHAR gopher
ENCODING 63488
SWIDTH 600 0
DWIDTH 11 0
BBX 9 11 1 -1
BITMAP
BE80
DD80
C900
8880
F700
FF00
BE80
FF00
FF00
7F00
6100
ENDCHAR
STARTCHAR fi
ENCODING 64257
SWIDTH 600 0
DWIDTH 11 0
BBX 11 14 0 0
BITMAP
1FC0
3FC0
77C0
7000
FFC0
FFC0
71C0
71C0
71C0
71C0
71C0
71C0
FBE0
FBE0
ENDCHAR
STARTCHAR fl
ENCODING 64258
SWIDTH 600 0
DWIDTH 11 0
BBX 11 14 0 0
BITMAP
1FC0
3FC0
71C0
71C0
FDC0
FDC0
71C0
71C0
71C0
71C0
71C0
71C0
F9E0
F8E0
ENDCHAR
STARTCHAR .notdef
ENCODING -1
SWIDTH 600 0
DWIDTH 11 0
BBX 9 13 1 0
BITMAP
FF80
8080
8080
8080
8080
8080
8080
8080
8080
8080
8080
8080
FF80
ENDCHAR
STARTCHAR zerodot
ENCODING -1
SWIDTH 600 0
DWIDTH 11 0
BBX 9 14 1 0
BITMAP
1C00
3E00
6700
E300
E380
E380
CB80
CB80
E380
E380
E380
E300
7700
3E00
ENDCHAR
STARTCHAR zero_empty
ENCODING -1
SWIDTH 600 0
DWIDTH 11 0
BBX 9 14 1 0
BITMAP
1C00
3E00
6700
E300
E380
E380
E380
E380
E380
E380
E380
E300
7700
3E00
ENDCHAR
ENDFONT
